<?xml version="1.0" encoding="UTF-8" standalone="no"?>
<!-- Created with Inkscape (http://www.inkscape.org/) -->

<svg
   xmlns:dc="http://purl.org/dc/elements/1.1/"
   xmlns:cc="http://creativecommons.org/ns#"
   xmlns:rdf="http://www.w3.org/1999/02/22-rdf-syntax-ns#"
   xmlns:svg="http://www.w3.org/2000/svg"
   xmlns="http://www.w3.org/2000/svg"
   xmlns:sodipodi="http://sodipodi.sourceforge.net/DTD/sodipodi-0.dtd"
   xmlns:inkscape="http://www.inkscape.org/namespaces/inkscape"
   width="23.51852mm"
   height="23.409224mm"
   viewBox="0 0 83.33334 82.946067"
   id="svg8303"
   version="1.1"
   inkscape:version="0.91 r"
   sodipodi:docname="qr.svg">
  <defs
     id="defs8305" />
  <sodipodi:namedview
     id="base"
     pagecolor="#ffffff"
     bordercolor="#666666"
     borderopacity="1.0"
     inkscape:pageopacity="0.0"
     inkscape:pageshadow="2"
     inkscape:zoom="2.8"
     inkscape:cx="105.65863"
     inkscape:cy="34.511585"
     inkscape:document-units="px"
     inkscape:current-layer="layer1"
     showgrid="false"
     fit-margin-top="0"
     fit-margin-left="0"
     fit-margin-right="0"
     fit-margin-bottom="0"
     inkscape:window-width="1280"
     inkscape:window-height="743"
     inkscape:window-x="0"
     inkscape:window-y="0"
     inkscape:window-maximized="1" />
  <metadata
     id="metadata8308">
    <rdf:RDF>
      <cc:Work
         rdf:about="">
        <dc:format>image/svg+xml</dc:format>
        <dc:type
           rdf:resource="http://purl.org/dc/dcmitype/StillImage" />
        <dc:title></dc:title>
      </cc:Work>
    </rdf:RDF>
  </metadata>
  <g
     inkscape:label="Ebene 1"
     inkscape:groupmode="layer"
     id="layer1"
     transform="translate(-26.904757,-39.460599)">
    <path
       inkscape:connector-curvature="0"
       id="path1792"
       style="fill:#276a9e;fill-opacity:1;fill-rule:evenodd;stroke:none"
       d="m 26.904757,122.40667 3.33334,0 0,-3.31785 -3.33334,0 0,3.31785 z m 3.33334,0 3.33332,0 0,-3.31785 -3.33332,0 0,3.31785 z m 3.33332,0 3.33334,0 0,-3.31785 -3.33334,0 0,3.31785 z m 3.33334,0 3.33334,0 0,-3.31785 -3.33334,0 0,3.31785 z m 3.33334,0 3.33333,0 0,-3.31785 -3.33333,0 0,3.31785 z m 3.33333,0 3.33333,0 0,-3.31785 -3.33333,0 0,3.31785 z m 3.33333,0 3.33334,0 0,-3.31785 -3.33334,0 0,3.31785 z m 6.66667,0 3.33333,0 0,-3.31785 -3.33333,0 0,3.31785 z m 3.33333,0 3.33334,0 0,-3.31785 -3.33334,0 0,3.31785 z m 10,0 3.33334,0 0,-3.31785 -3.33334,0 0,3.31785 z m 3.33334,0 3.33333,0 0,-3.31785 -3.33333,0 0,3.31785 z m 3.33333,0 3.33333,0 0,-3.31785 -3.33333,0 0,3.31785 z m 3.33333,0 3.33334,0 0,-3.31785 -3.33334,0 0,3.31785 z m 6.666665,0 3.333337,0 0,-3.31785 -3.333337,0 0,3.31785 z m 3.333337,0 3.333338,0 0,-3.31785 -3.333338,0 0,3.31785 z m 3.333338,0 3.333325,0 0,-3.31785 -3.333325,0 0,3.31785 z m 3.333325,0 3.333337,0 0,-3.31785 -3.333337,0 0,3.31785 z m 3.333337,0 3.333341,0 0,-3.31785 -3.333341,0 0,3.31785 z m 3.333341,0 3.33332,0 0,-3.31785 -3.33332,0 0,3.31785 z m 3.33332,0 3.33334,0 0,-3.31785 -3.33334,0 0,3.31785 z m 3.33334,0 3.33334,0 0,-3.31785 -3.33334,0 0,3.31785 z m -80.000003,-3.31785 3.33334,0 0,-3.31784 -3.33334,0 0,3.31784 z m 20,0 3.33334,0 0,-3.31784 -3.33334,0 0,3.31784 z m 6.66667,0 3.33333,0 0,-3.31784 -3.33333,0 0,3.31784 z m 6.66667,0 3.33333,0 0,-3.31784 -3.33333,0 0,3.31784 z m 16.66666,0 3.33334,0 0,-3.31784 -3.33334,0 0,3.31784 z m 3.33334,0 3.333325,0 0,-3.31784 -3.333325,0 0,3.31784 z m 6.666662,0 3.333338,0 0,-3.31784 -3.333338,0 0,3.31784 z m 3.333338,0 3.333325,0 0,-3.31784 -3.333325,0 0,3.31784 z m 3.333325,0 3.333337,0 0,-3.31784 -3.333337,0 0,3.31784 z m 3.333337,0 3.333341,0 0,-3.31784 -3.333341,0 0,3.31784 z m 10.000001,0 3.33334,0 0,-3.31784 -3.33334,0 0,3.31784 z m -80.000003,-3.31784 3.33334,0 0,-3.31785 -3.33334,0 0,3.31785 z m 6.66666,0 3.33334,0 0,-3.31785 -3.33334,0 0,3.31785 z m 3.33334,0 3.33334,0 0,-3.31785 -3.33334,0 0,3.31785 z m 3.33334,0 3.33333,0 0,-3.31785 -3.33333,0 0,3.31785 z m 6.66666,0 3.33334,0 0,-3.31785 -3.33334,0 0,3.31785 z m 6.66667,0 3.33333,0 0,-3.31785 -3.33333,0 0,3.31785 z m 6.66667,0 3.33333,0 0,-3.31785 -3.33333,0 0,3.31785 z m 6.66666,0 3.33334,0 0,-3.31785 -3.33334,0 0,3.31785 z m 3.33334,0 3.33333,0 0,-3.31785 -3.33333,0 0,3.31785 z m 3.33333,0 3.33333,0 0,-3.31785 -3.33333,0 0,3.31785 z m 6.66667,0 3.333325,0 0,-3.31785 -3.333325,0 0,3.31785 z m 10,0 3.333325,0 0,-3.31785 -3.333325,0 0,3.31785 z m 10.000003,0 3.33332,0 0,-3.31785 -3.33332,0 0,3.31785 z m 6.66666,0 3.33334,0 0,-3.31785 -3.33334,0 0,3.31785 z m -80.000003,-3.31785 3.33334,0 0,-3.31784 -3.33334,0 0,3.31784 z m 6.66666,0 3.33334,0 0,-3.31784 -3.33334,0 0,3.31784 z m 3.33334,0 3.33334,0 0,-3.31784 -3.33334,0 0,3.31784 z m 3.33334,0 3.33333,0 0,-3.31784 -3.33333,0 0,3.31784 z m 6.66666,0 3.33334,0 0,-3.31784 -3.33334,0 0,3.31784 z m 6.66667,0 3.33333,0 0,-3.31784 -3.33333,0 0,3.31784 z m 6.66667,0 3.33333,0 0,-3.31784 -3.33333,0 0,3.31784 z m 3.33333,0 3.33333,0 0,-3.31784 -3.33333,0 0,3.31784 z m 6.66667,0 3.33333,0 0,-3.31784 -3.33333,0 0,3.31784 z m 13.333325,0 3.333337,0 0,-3.31784 -3.333337,0 0,3.31784 z m 3.333337,0 3.333338,0 0,-3.31784 -3.333338,0 0,3.31784 z m 6.666663,0 3.333337,0 0,-3.31784 -3.333337,0 0,3.31784 z m 6.666678,0 3.33332,0 0,-3.31784 -3.33332,0 0,3.31784 z m 3.33332,0 3.33334,0 0,-3.31784 -3.33334,0 0,3.31784 z m 3.33334,0 3.33334,0 0,-3.31784 -3.33334,0 0,3.31784 z m -80.000003,-3.31784 3.33334,0 0,-3.31784 -3.33334,0 0,3.31784 z m 6.66666,0 3.33334,0 0,-3.31784 -3.33334,0 0,3.31784 z m 3.33334,0 3.33334,0 0,-3.31784 -3.33334,0 0,3.31784 z m 3.33334,0 3.33333,0 0,-3.31784 -3.33333,0 0,3.31784 z m 6.66666,0 3.33334,0 0,-3.31784 -3.33334,0 0,3.31784 z m 6.66667,0 3.33333,0 0,-3.31784 -3.33333,0 0,3.31784 z m 6.66667,0 3.33333,0 0,-3.31784 -3.33333,0 0,3.31784 z m 6.66666,0 3.33334,0 0,-3.31784 -3.33334,0 0,3.31784 z m 3.33334,0 3.33333,0 0,-3.31784 -3.33333,0 0,3.31784 z m 6.66666,0 3.33334,0 0,-3.31784 -3.33334,0 0,3.31784 z m 3.33334,0 3.333325,0 0,-3.31784 -3.333325,0 0,3.31784 z m 3.333325,0 3.333337,0 0,-3.31784 -3.333337,0 0,3.31784 z m 3.333337,0 3.333338,0 0,-3.31784 -3.333338,0 0,3.31784 z m 3.333338,0 3.333325,0 0,-3.31784 -3.333325,0 0,3.31784 z m 3.333325,0 3.333337,0 0,-3.31784 -3.333337,0 0,3.31784 z m 3.333337,0 3.333341,0 0,-3.31784 -3.333341,0 0,3.31784 z m 3.333341,0 3.33332,0 0,-3.31784 -3.33332,0 0,3.31784 z m 3.33332,0 3.33334,0 0,-3.31784 -3.33334,0 0,3.31784 z m -76.666663,-3.31784 3.33334,0 0,-3.31785 -3.33334,0 0,3.31785 z m 20,0 3.33334,0 0,-3.31785 -3.33334,0 0,3.31785 z m 10,0 3.33334,0 0,-3.31785 -3.33334,0 0,3.31785 z m 16.66667,0 3.33333,0 0,-3.31785 -3.33333,0 0,3.31785 z m 6.66667,0 3.333325,0 0,-3.31785 -3.333325,0 0,3.31785 z m 13.333325,0 3.333337,0 0,-3.31785 -3.333337,0 0,3.31785 z m 3.333337,0 3.333341,0 0,-3.31785 -3.333341,0 0,3.31785 z m 6.666661,0 3.33334,0 0,-3.31785 -3.33334,0 0,3.31785 z m 3.33334,0 3.33334,0 0,-3.31785 -3.33334,0 0,3.31785 z m -80.000003,-3.31785 3.33334,0 0,-3.317831 -3.33334,0 0,3.317831 z m 3.33334,0 3.33332,0 0,-3.317831 -3.33332,0 0,3.317831 z m 3.33332,0 3.33334,0 0,-3.317831 -3.33334,0 0,3.317831 z m 3.33334,0 3.33334,0 0,-3.317831 -3.33334,0 0,3.317831 z m 3.33334,0 3.33333,0 0,-3.317831 -3.33333,0 0,3.317831 z m 3.33333,0 3.33333,0 0,-3.317831 -3.33333,0 0,3.317831 z m 3.33333,0 3.33334,0 0,-3.317831 -3.33334,0 0,3.317831 z m 6.66667,0 3.33333,0 0,-3.317831 -3.33333,0 0,3.317831 z m 20,0 3.33333,0 0,-3.317831 -3.33333,0 0,3.317831 z m 6.66667,0 3.333325,0 0,-3.317831 -3.333325,0 0,3.317831 z m 6.666662,0 3.333338,0 0,-3.317831 -3.333338,0 0,3.317831 z m 6.666663,0 3.333337,0 0,-3.317831 -3.333337,0 0,3.317831 z m 3.333337,0 3.333341,0 0,-3.317831 -3.333341,0 0,3.317831 z m 3.333341,0 3.33332,0 0,-3.317831 -3.33332,0 0,3.317831 z m 3.33332,0 3.33334,0 0,-3.317831 -3.33334,0 0,3.317831 z m 3.33334,0 3.33334,0 0,-3.317831 -3.33334,0 0,3.317831 z m -53.333333,-3.317831 3.33333,0 0,-3.31784 -3.33333,0 0,3.31784 z m 10,0 3.33333,0 0,-3.31784 -3.33333,0 0,3.31784 z m 3.33333,0 3.33334,0 0,-3.31784 -3.33334,0 0,3.31784 z m 10,0 3.33334,0 0,-3.31784 -3.33334,0 0,3.31784 z m 3.33334,0 3.333325,0 0,-3.31784 -3.333325,0 0,3.31784 z m 13.333325,0 3.333337,0 0,-3.31784 -3.333337,0 0,3.31784 z m 3.333337,0 3.333341,0 0,-3.31784 -3.333341,0 0,3.31784 z m 3.333341,0 3.33332,0 0,-3.31784 -3.33332,0 0,3.31784 z m -73.333343,-3.31784 3.33334,0 0,-3.31785 -3.33334,0 0,3.31785 z m 10,0 3.33334,0 0,-3.31785 -3.33334,0 0,3.31785 z m 6.66667,0 3.33333,0 0,-3.31785 -3.33333,0 0,3.31785 z m 3.33333,0 3.33334,0 0,-3.31785 -3.33334,0 0,3.31785 z m 6.66667,0 3.33333,0 0,-3.31785 -3.33333,0 0,3.31785 z m 10,0 3.33333,0 0,-3.31785 -3.33333,0 0,3.31785 z m 3.33333,0 3.33334,0 0,-3.31785 -3.33334,0 0,3.31785 z m 3.33334,0 3.33333,0 0,-3.31785 -3.33333,0 0,3.31785 z m 3.33333,0 3.33333,0 0,-3.31785 -3.33333,0 0,3.31785 z m 3.33333,0 3.33334,0 0,-3.31785 -3.33334,0 0,3.31785 z m 3.33334,0 3.333325,0 0,-3.31785 -3.333325,0 0,3.31785 z m 3.333325,0 3.333337,0 0,-3.31785 -3.333337,0 0,3.31785 z m 3.333337,0 3.333338,0 0,-3.31785 -3.333338,0 0,3.31785 z m 3.333338,0 3.333325,0 0,-3.31785 -3.333325,0 0,3.31785 z m 3.333325,0 3.333337,0 0,-3.31785 -3.333337,0 0,3.31785 z m 6.666678,0 3.33332,0 0,-3.31785 -3.33332,0 0,3.31785 z m -73.333343,-3.31785 3.33334,0 0,-3.31784 -3.33334,0 0,3.31784 z m 6.66666,0 3.33334,0 0,-3.31784 -3.33334,0 0,3.31784 z m 10.00001,0 3.33333,0 0,-3.31784 -3.33333,0 0,3.31784 z m 10,0 3.33333,0 0,-3.31784 -3.33333,0 0,3.31784 z m 6.66667,0 3.33333,0 0,-3.31784 -3.33333,0 0,3.31784 z m 3.33333,0 3.33333,0 0,-3.31784 -3.33333,0 0,3.31784 z m 10,0 3.33333,0 0,-3.31784 -3.33333,0 0,3.31784 z m 9.999995,0 3.333337,0 0,-3.31784 -3.333337,0 0,3.31784 z m 3.333337,0 3.333338,0 0,-3.31784 -3.333338,0 0,3.31784 z m 6.666663,0 3.333337,0 0,-3.31784 -3.333337,0 0,3.31784 z m 3.333337,0 3.333341,0 0,-3.31784 -3.333341,0 0,3.31784 z m 10.000001,0 3.33334,0 0,-3.31784 -3.33334,0 0,3.31784 z m -80.000003,-3.31784 3.33334,0 0,-3.31785 -3.33334,0 0,3.31785 z m 6.66666,0 3.33334,0 0,-3.31785 -3.33334,0 0,3.31785 z m 3.33334,0 3.33334,0 0,-3.31785 -3.33334,0 0,3.31785 z m 6.66667,0 3.33333,0 0,-3.31785 -3.33333,0 0,3.31785 z m 3.33333,0 3.33334,0 0,-3.31785 -3.33334,0 0,3.31785 z m 23.33334,0 3.33333,0 0,-3.31785 -3.33333,0 0,3.31785 z m 3.33333,0 3.33333,0 0,-3.31785 -3.33333,0 0,3.31785 z m 3.33333,0 3.33334,0 0,-3.31785 -3.33334,0 0,3.31785 z m 3.33334,0 3.333325,0 0,-3.31785 -3.333325,0 0,3.31785 z m 3.333325,0 3.333337,0 0,-3.31785 -3.333337,0 0,3.31785 z m 6.666675,0 3.333325,0 0,-3.31785 -3.333325,0 0,3.31785 z m 3.333325,0 3.333337,0 0,-3.31785 -3.333337,0 0,3.31785 z m 3.333337,0 3.333341,0 0,-3.31785 -3.333341,0 0,3.31785 z m 6.666661,0 3.33334,0 0,-3.31785 -3.33334,0 0,3.31785 z m 3.33334,0 3.33334,0 0,-3.31785 -3.33334,0 0,3.31785 z m -80.000003,-3.31785 3.33334,0 0,-3.31784 -3.33334,0 0,3.31784 z m 3.33334,0 3.33332,0 0,-3.31784 -3.33332,0 0,3.31784 z m 3.33332,0 3.33334,0 0,-3.31784 -3.33334,0 0,3.31784 z m 16.66668,0 3.33333,0 0,-3.31784 -3.33333,0 0,3.31784 z m 13.33333,0 3.33333,0 0,-3.31784 -3.33333,0 0,3.31784 z m 16.66667,0 3.333325,0 0,-3.31784 -3.333325,0 0,3.31784 z m 10,0 3.333325,0 0,-3.31784 -3.333325,0 0,3.31784 z m 6.666662,0 3.333341,0 0,-3.31784 -3.333341,0 0,3.31784 z m 6.666661,0 3.33334,0 0,-3.31784 -3.33334,0 0,3.31784 z m -76.666663,-3.31784 3.33334,0 0,-3.31783 -3.33334,0 0,3.31783 z m 3.33334,0 3.33332,0 0,-3.31783 -3.33332,0 0,3.31783 z m 10,0 3.33333,0 0,-3.31783 -3.33333,0 0,3.31783 z m 6.66666,0 3.33334,0 0,-3.31783 -3.33334,0 0,3.31783 z m 3.33334,0 3.33333,0 0,-3.31783 -3.33333,0 0,3.31783 z m 3.33333,0 3.33333,0 0,-3.31783 -3.33333,0 0,3.31783 z m 3.33333,0 3.33334,0 0,-3.31783 -3.33334,0 0,3.31783 z m 3.33334,0 3.33333,0 0,-3.31783 -3.33333,0 0,3.31783 z m 10,0 3.33333,0 0,-3.31783 -3.33333,0 0,3.31783 z m 3.33333,0 3.33333,0 0,-3.31783 -3.33333,0 0,3.31783 z m 9.999995,0 3.333337,0 0,-3.31783 -3.333337,0 0,3.31783 z m 3.333337,0 3.333338,0 0,-3.31783 -3.333338,0 0,3.31783 z m 6.666663,0 3.333337,0 0,-3.31783 -3.333337,0 0,3.31783 z m 6.666678,0 3.33332,0 0,-3.31783 -3.33332,0 0,3.31783 z m 3.33332,0 3.33334,0 0,-3.31783 -3.33334,0 0,3.31783 z m 3.33334,0 3.33334,0 0,-3.31783 -3.33334,0 0,3.31783 z m -76.666663,-3.31783 3.33332,0 0,-3.31785 -3.33332,0 0,3.31785 z m 6.66666,0 3.33334,0 0,-3.31785 -3.33334,0 0,3.31785 z m 3.33334,0 3.33333,0 0,-3.31785 -3.33333,0 0,3.31785 z m 3.33333,0 3.33333,0 0,-3.31785 -3.33333,0 0,3.31785 z m 10,0 3.33333,0 0,-3.31785 -3.33333,0 0,3.31785 z m 10,0 3.33333,0 0,-3.31785 -3.33333,0 0,3.31785 z m 3.33333,0 3.33334,0 0,-3.31785 -3.33334,0 0,3.31785 z m 10,0 3.33334,0 0,-3.31785 -3.33334,0 0,3.31785 z m 6.666665,0 3.333337,0 0,-3.31785 -3.333337,0 0,3.31785 z m 3.333337,0 3.333338,0 0,-3.31785 -3.333338,0 0,3.31785 z m 3.333338,0 3.333325,0 0,-3.31785 -3.333325,0 0,3.31785 z m 3.333325,0 3.333337,0 0,-3.31785 -3.333337,0 0,3.31785 z m 13.333338,0 3.33334,0 0,-3.31785 -3.33334,0 0,3.31785 z m -80.000003,-3.31785 3.33334,0 0,-3.31784 -3.33334,0 0,3.31784 z m 3.33334,0 3.33332,0 0,-3.31784 -3.33332,0 0,3.31784 z m 10,0 3.33333,0 0,-3.31784 -3.33333,0 0,3.31784 z m 3.33333,0 3.33333,0 0,-3.31784 -3.33333,0 0,3.31784 z m 3.33333,0 3.33334,0 0,-3.31784 -3.33334,0 0,3.31784 z m 3.33334,0 3.33333,0 0,-3.31784 -3.33333,0 0,3.31784 z m 10,0 3.33333,0 0,-3.31784 -3.33333,0 0,3.31784 z m 10,0 3.33333,0 0,-3.31784 -3.33333,0 0,3.31784 z m 3.33333,0 3.33333,0 0,-3.31784 -3.33333,0 0,3.31784 z m 3.33333,0 3.33334,0 0,-3.31784 -3.33334,0 0,3.31784 z m 20.000002,0 3.333341,0 0,-3.31784 -3.333341,0 0,3.31784 z m 6.666661,0 3.33334,0 0,-3.31784 -3.33334,0 0,3.31784 z m 3.33334,0 3.33334,0 0,-3.31784 -3.33334,0 0,3.31784 z m -80.000003,-3.31784 3.33334,0 0,-3.31785 -3.33334,0 0,3.31785 z m 10,0 3.33334,0 0,-3.31785 -3.33334,0 0,3.31785 z m 6.66667,0 3.33333,0 0,-3.31785 -3.33333,0 0,3.31785 z m 10,0 3.33333,0 0,-3.31785 -3.33333,0 0,3.31785 z m 6.66667,0 3.33333,0 0,-3.31785 -3.33333,0 0,3.31785 z m 3.33333,0 3.33333,0 0,-3.31785 -3.33333,0 0,3.31785 z m 6.66667,0 3.33333,0 0,-3.31785 -3.33333,0 0,3.31785 z m 10,0 3.333325,0 0,-3.31785 -3.333325,0 0,3.31785 z m 10,0 3.333325,0 0,-3.31785 -3.333325,0 0,3.31785 z m 13.333323,0 3.33334,0 0,-3.31785 -3.33334,0 0,3.31785 z m -76.666663,-3.31785 3.33334,0 0,-3.31784 -3.33334,0 0,3.31784 z m 3.33334,0 3.33332,0 0,-3.31784 -3.33332,0 0,3.31784 z m 3.33332,0 3.33334,0 0,-3.31784 -3.33334,0 0,3.31784 z m 3.33334,0 3.33334,0 0,-3.31784 -3.33334,0 0,3.31784 z m 3.33334,0 3.33333,0 0,-3.31784 -3.33333,0 0,3.31784 z m 6.66666,0 3.33334,0 0,-3.31784 -3.33334,0 0,3.31784 z m 3.33334,0 3.33333,0 0,-3.31784 -3.33333,0 0,3.31784 z m 3.33333,0 3.33333,0 0,-3.31784 -3.33333,0 0,3.31784 z m 3.33333,0 3.33334,0 0,-3.31784 -3.33334,0 0,3.31784 z m 10,0 3.33334,0 0,-3.31784 -3.33334,0 0,3.31784 z m 3.33334,0 3.33333,0 0,-3.31784 -3.33333,0 0,3.31784 z m 3.33333,0 3.33333,0 0,-3.31784 -3.33333,0 0,3.31784 z m 3.33333,0 3.33334,0 0,-3.31784 -3.33334,0 0,3.31784 z m 6.666665,0 3.333337,0 0,-3.31784 -3.333337,0 0,3.31784 z m 6.666675,0 3.333325,0 0,-3.31784 -3.333325,0 0,3.31784 z m 6.666662,0 3.333341,0 0,-3.31784 -3.333341,0 0,3.31784 z m 6.666661,0 3.33334,0 0,-3.31784 -3.33334,0 0,3.31784 z m -46.666663,-3.31784 3.33334,0 0,-3.31784 -3.33334,0 0,3.31784 z m 3.33334,0 3.33333,0 0,-3.31784 -3.33333,0 0,3.31784 z m 3.33333,0 3.33333,0 0,-3.31784 -3.33333,0 0,3.31784 z m 3.33333,0 3.33334,0 0,-3.31784 -3.33334,0 0,3.31784 z m 6.66667,0 3.33333,0 0,-3.31784 -3.33333,0 0,3.31784 z m 3.33333,0 3.33334,0 0,-3.31784 -3.33334,0 0,3.31784 z m -50,-3.31784 3.33334,0 0,-3.31785 -3.33334,0 0,3.31785 z m 3.33334,0 3.33332,0 0,-3.31785 -3.33332,0 0,3.31785 z m 3.33332,0 3.33334,0 0,-3.31785 -3.33334,0 0,3.31785 z m 3.33334,0 3.33334,0 0,-3.31785 -3.33334,0 0,3.31785 z m 3.33334,0 3.33333,0 0,-3.31785 -3.33333,0 0,3.31785 z m 3.33333,0 3.33333,0 0,-3.31785 -3.33333,0 0,3.31785 z m 3.33333,0 3.33334,0 0,-3.31785 -3.33334,0 0,3.31785 z m 6.66667,0 3.33333,0 0,-3.31785 -3.33333,0 0,3.31785 z m 6.66667,0 3.33333,0 0,-3.31785 -3.33333,0 0,3.31785 z m 6.66666,0 3.33334,0 0,-3.31785 -3.33334,0 0,3.31785 z m 6.66667,0 3.33333,0 0,-3.31785 -3.33333,0 0,3.31785 z m 6.66667,0 3.333325,0 0,-3.31785 -3.333325,0 0,3.31785 z m 6.666662,0 3.333338,0 0,-3.31785 -3.333338,0 0,3.31785 z m 3.333338,0 3.333325,0 0,-3.31785 -3.333325,0 0,3.31785 z m 3.333325,0 3.333337,0 0,-3.31785 -3.333337,0 0,3.31785 z m 3.333337,0 3.333341,0 0,-3.31785 -3.333341,0 0,3.31785 z m 3.333341,0 3.33332,0 0,-3.31785 -3.33332,0 0,3.31785 z m 3.33332,0 3.33334,0 0,-3.31785 -3.33334,0 0,3.31785 z m 3.33334,0 3.33334,0 0,-3.31785 -3.33334,0 0,3.31785 z m -80.000003,-3.31785 3.33334,0 0,-3.31783 -3.33334,0 0,3.31783 z m 20,0 3.33334,0 0,-3.31783 -3.33334,0 0,3.31783 z m 6.66667,0 3.33333,0 0,-3.31783 -3.33333,0 0,3.31783 z m 3.33333,0 3.33334,0 0,-3.31783 -3.33334,0 0,3.31783 z m 16.66667,0 3.33333,0 0,-3.31783 -3.33333,0 0,3.31783 z m 3.33333,0 3.33334,0 0,-3.31783 -3.33334,0 0,3.31783 z m 3.33334,0 3.333325,0 0,-3.31783 -3.333325,0 0,3.31783 z m 6.666662,0 3.333338,0 0,-3.31783 -3.333338,0 0,3.31783 z m 20.000001,0 3.33334,0 0,-3.31783 -3.33334,0 0,3.31783 z m -80.000003,-3.31783 3.33334,0 0,-3.31784 -3.33334,0 0,3.31784 z m 6.66666,0 3.33334,0 0,-3.31784 -3.33334,0 0,3.31784 z m 3.33334,0 3.33334,0 0,-3.31784 -3.33334,0 0,3.31784 z m 3.33334,0 3.33333,0 0,-3.31784 -3.33333,0 0,3.31784 z m 6.66666,0 3.33334,0 0,-3.31784 -3.33334,0 0,3.31784 z m 10,0 3.33334,0 0,-3.31784 -3.33334,0 0,3.31784 z m 6.66667,0 3.33333,0 0,-3.31784 -3.33333,0 0,3.31784 z m 16.66667,0 3.333325,0 0,-3.31784 -3.333325,0 0,3.31784 z m 6.666662,0 3.333338,0 0,-3.31784 -3.333338,0 0,3.31784 z m 6.666663,0 3.333337,0 0,-3.31784 -3.333337,0 0,3.31784 z m 3.333337,0 3.333341,0 0,-3.31784 -3.333341,0 0,3.31784 z m 3.333341,0 3.33332,0 0,-3.31784 -3.33332,0 0,3.31784 z m 6.66666,0 3.33334,0 0,-3.31784 -3.33334,0 0,3.31784 z m -80.000003,-3.31784 3.33334,0 0,-3.31785 -3.33334,0 0,3.31785 z m 6.66666,0 3.33334,0 0,-3.31785 -3.33334,0 0,3.31785 z m 3.33334,0 3.33334,0 0,-3.31785 -3.33334,0 0,3.31785 z m 3.33334,0 3.33333,0 0,-3.31785 -3.33333,0 0,3.31785 z m 6.66666,0 3.33334,0 0,-3.31785 -3.33334,0 0,3.31785 z m 6.66667,0 3.33333,0 0,-3.31785 -3.33333,0 0,3.31785 z m 3.33333,0 3.33334,0 0,-3.31785 -3.33334,0 0,3.31785 z m 3.33334,0 3.33333,0 0,-3.31785 -3.33333,0 0,3.31785 z m 10,0 3.33333,0 0,-3.31785 -3.33333,0 0,3.31785 z m 3.33333,0 3.33333,0 0,-3.31785 -3.33333,0 0,3.31785 z m 13.333332,0 3.333338,0 0,-3.31785 -3.333338,0 0,3.31785 z m 6.666663,0 3.333337,0 0,-3.31785 -3.333337,0 0,3.31785 z m 3.333337,0 3.333341,0 0,-3.31785 -3.333341,0 0,3.31785 z m 3.333341,0 3.33332,0 0,-3.31785 -3.33332,0 0,3.31785 z m 6.66666,0 3.33334,0 0,-3.31785 -3.33334,0 0,3.31785 z m -80.000003,-3.31785 3.33334,0 0,-3.31784 -3.33334,0 0,3.31784 z m 6.66666,0 3.33334,0 0,-3.31784 -3.33334,0 0,3.31784 z m 3.33334,0 3.33334,0 0,-3.31784 -3.33334,0 0,3.31784 z m 3.33334,0 3.33333,0 0,-3.31784 -3.33333,0 0,3.31784 z m 6.66666,0 3.33334,0 0,-3.31784 -3.33334,0 0,3.31784 z m 20,0 3.33334,0 0,-3.31784 -3.33334,0 0,3.31784 z m 10,0 3.33334,0 0,-3.31784 -3.33334,0 0,3.31784 z m 3.33334,0 3.333325,0 0,-3.31784 -3.333325,0 0,3.31784 z m 6.666662,0 3.333338,0 0,-3.31784 -3.333338,0 0,3.31784 z m 6.666663,0 3.333337,0 0,-3.31784 -3.333337,0 0,3.31784 z m 3.333337,0 3.333341,0 0,-3.31784 -3.333341,0 0,3.31784 z m 3.333341,0 3.33332,0 0,-3.31784 -3.33332,0 0,3.31784 z m 6.66666,0 3.33334,0 0,-3.31784 -3.33334,0 0,3.31784 z m -80.000003,-3.31784 3.33334,0 0,-3.31785 -3.33334,0 0,3.31785 z m 20,0 3.33334,0 0,-3.31785 -3.33334,0 0,3.31785 z m 6.66667,0 3.33333,0 0,-3.31785 -3.33333,0 0,3.31785 z m 6.66667,0 3.33333,0 0,-3.31785 -3.33333,0 0,3.31785 z m 6.66666,0 3.33334,0 0,-3.31785 -3.33334,0 0,3.31785 z m 6.66667,0 3.33333,0 0,-3.31785 -3.33333,0 0,3.31785 z m 3.33333,0 3.33334,0 0,-3.31785 -3.33334,0 0,3.31785 z m 10.000002,0 3.333338,0 0,-3.31785 -3.333338,0 0,3.31785 z m 20.000001,0 3.33334,0 0,-3.31785 -3.33334,0 0,3.31785 z m -80.000003,-3.31785 3.33334,0 0,-3.31784 -3.33334,0 0,3.31784 z m 3.33334,0 3.33332,0 0,-3.31784 -3.33332,0 0,3.31784 z m 3.33332,0 3.33334,0 0,-3.31784 -3.33334,0 0,3.31784 z m 3.33334,0 3.33334,0 0,-3.31784 -3.33334,0 0,3.31784 z m 3.33334,0 3.33333,0 0,-3.31784 -3.33333,0 0,3.31784 z m 3.33333,0 3.33333,0 0,-3.31784 -3.33333,0 0,3.31784 z m 3.33333,0 3.33334,0 0,-3.31784 -3.33334,0 0,3.31784 z m 20,0 3.33334,0 0,-3.31784 -3.33334,0 0,3.31784 z m 3.33334,0 3.33333,0 0,-3.31784 -3.33333,0 0,3.31784 z m 10,0 3.333325,0 0,-3.31784 -3.333325,0 0,3.31784 z m 6.666662,0 3.333338,0 0,-3.31784 -3.333338,0 0,3.31784 z m 3.333338,0 3.333325,0 0,-3.31784 -3.333325,0 0,3.31784 z m 3.333325,0 3.333337,0 0,-3.31784 -3.333337,0 0,3.31784 z m 3.333337,0 3.333341,0 0,-3.31784 -3.333341,0 0,3.31784 z m 3.333341,0 3.33332,0 0,-3.31784 -3.33332,0 0,3.31784 z m 3.33332,0 3.33334,0 0,-3.31784 -3.33334,0 0,3.31784 z m 3.33334,0 3.33334,0 0,-3.31784 -3.33334,0 0,3.31784 z" />
  </g>
</svg>
