<?xml version="1.0" encoding="UTF-8" standalone="no"?>
<!-- Created with Inkscape (http://www.inkscape.org/) -->

<svg
   xmlns:dc="http://purl.org/dc/elements/1.1/"
   xmlns:cc="http://creativecommons.org/ns#"
   xmlns:rdf="http://www.w3.org/1999/02/22-rdf-syntax-ns#"
   xmlns:svg="http://www.w3.org/2000/svg"
   xmlns="http://www.w3.org/2000/svg"
   xmlns:sodipodi="http://sodipodi.sourceforge.net/DTD/sodipodi-0.dtd"
   xmlns:inkscape="http://www.inkscape.org/namespaces/inkscape"
   width="28.884768mm"
   height="11.233904mm"
   viewBox="0 0 102.3476 39.805171"
   id="svg8399"
   version="1.1"
   inkscape:version="0.91 r"
   sodipodi:docname="janun-logo.svg">
  <defs
     id="defs8401">
    <clipPath
       clipPathUnits="userSpaceOnUse"
       id="clipPath1834">
      <path
         d="m -2.83465,-2.83465 428.0315,0 0,306.14174 -428.0315,0 0,-306.14174 z"
         id="path1836"
         inkscape:connector-curvature="0" />
    </clipPath>
    <clipPath
       clipPathUnits="userSpaceOnUse"
       id="clipPath1838">
      <path
         d="m 59.35591,29.75488 46,0 0,-9.0625 -46,0 0,9.0625 z"
         id="path1840"
         inkscape:connector-curvature="0"
         style="clip-rule:evenodd" />
    </clipPath>
    <clipPath
       clipPathUnits="userSpaceOnUse"
       id="clipPath1842">
      <path
         d="m -2.83465,-2.83465 428.0315,0 0,306.14174 -428.0315,0 0,-306.14174 z"
         id="path1844"
         inkscape:connector-curvature="0" />
    </clipPath>
    <clipPath
       clipPathUnits="userSpaceOnUse"
       id="clipPath1846">
      <path
         d="m 59.35591,29.75488 46,0 0,-9.0625 -46,0 0,9.0625 z"
         id="path1848"
         inkscape:connector-curvature="0"
         style="clip-rule:evenodd" />
    </clipPath>
    <clipPath
       clipPathUnits="userSpaceOnUse"
       id="clipPath1850">
      <path
         d="m -2.83465,-2.83465 428.0315,0 0,306.14174 -428.0315,0 0,-306.14174 z"
         id="path1852"
         inkscape:connector-curvature="0" />
    </clipPath>
  </defs>
  <sodipodi:namedview
     id="base"
     pagecolor="#ffffff"
     bordercolor="#666666"
     borderopacity="1.0"
     inkscape:pageopacity="0.0"
     inkscape:pageshadow="2"
     inkscape:zoom="1.4"
     inkscape:cx="257.60237"
     inkscape:cy="-54.383125"
     inkscape:document-units="px"
     inkscape:current-layer="layer1"
     showgrid="false"
     fit-margin-top="0"
     fit-margin-left="0"
     fit-margin-right="0"
     fit-margin-bottom="0"
     inkscape:window-width="1280"
     inkscape:window-height="743"
     inkscape:window-x="0"
     inkscape:window-y="0"
     inkscape:window-maximized="1" />
  <metadata
     id="metadata8404">
    <rdf:RDF>
      <cc:Work
         rdf:about="">
        <dc:format>image/svg+xml</dc:format>
        <dc:type
           rdf:resource="http://purl.org/dc/dcmitype/StillImage" />
        <dc:title></dc:title>
      </cc:Work>
    </rdf:RDF>
  </metadata>
  <g
     inkscape:label="Ebene 1"
     inkscape:groupmode="layer"
     id="layer1"
     transform="translate(-31.683343,-66.745335)">
    <path
       d="m 70.068893,97.7367 c 0.220587,-0.1105 0.441175,0.221 0.330875,0.662988 -0.110288,0.442 -0.330875,0.773487 -0.551463,0.883987 -0.330887,0.1105 -0.441175,-0.220987 -0.441175,-0.552487 0,0 0,0 0,-0.1105 -0.441187,-0.221 -1.875,-1.215488 -1.875,-1.104988 -0.661775,1.436488 -2.86765,3.20446 -3.970587,3.97795 -0.2206,0.1105 -0.441188,0.33149 -0.661775,0.44199 0,0 0.220587,-0.1105 0.661775,-0.44199 2.75735,-2.099475 4.963225,-5.966912 3.75,-8.839875 -1.10295,-2.651962 -5.073538,-3.86745 -7.830888,-1.215487 -7.6103,7.4034 1.985288,10.165862 4.852938,6.519412 2.97795,-3.86745 -1.433825,-6.629912 -3.088238,-2.872962 -0.330875,0.662987 0,1.104987 0.551475,1.215487 0,-0.1105 -0.110287,-0.3315 0,-0.442 0.1103,-0.662987 0.661763,-1.215475 1.213238,-1.215475 0.551475,0 0.99265,0.441988 0.88235,1.104975 0,0.221 -0.110288,0.442 -0.220588,0.663 -0.110287,0.110488 -0.110287,0.220988 -0.220587,0.220988 -1.654413,1.767975 -5.404413,0.1105 -1.9853,-3.31495 2.647062,-2.651963 6.507362,0.883987 3.419125,5.193425 -1.764713,2.320472 -4.852938,2.762462 -7.058825,1.436487 -1.9853,0.773485 -4.411763,3.314955 -5.183825,3.867435 0.1103,0.1105 0.1103,0.221 0.1103,0.442 0,0.77349 -0.99265,1.65748 -2.095588,2.09947 -1.213237,0.442 -2.316187,0.1105 -2.316187,-0.77349 0,-0.88399 1.10295,-1.87848 2.426475,-2.20996 0.330887,-0.1105 0.661762,-0.1105 0.88235,-0.1105 0.99265,-0.88399 4.85295,-3.756955 4.632362,-4.751442 -0.551475,-0.883988 -0.882362,-1.988975 -0.661775,-3.31495 -2.205875,-2.872963 -11.911762,-6.8509 -13.89705,-8.066388 -0.882363,0.5525 -2.205888,0.773488 -3.8603,0.5525 -3.088238,-0.442 -6.066175,-2.209975 -6.176463,-4.19895 -0.1103,-1.878462 2.64705,-2.76245 5.955875,-1.988962 2.86765,0.773487 4.963238,2.541462 4.963238,4.088437 0,0.1105 0,0.221 0,0.3315 2.316175,0.773488 11.360288,5.303925 15,5.414413 0.220588,-0.331488 0.551475,-0.552488 0.88235,-0.883988 0.551475,-0.441987 1.102938,-0.883987 1.764713,-1.104975 -0.551475,-3.86745 -5.294125,-13.370312 -6.72795,-16.574762 -0.110288,0 -0.220588,-0.1105 -0.220588,-0.1105 -1.654412,-0.994488 -3.088237,-3.204463 -2.977937,-4.640938 0,-1.546975 1.544112,-1.657475 3.198525,-0.441987 1.544125,1.215475 2.647062,3.09395 2.536775,4.419937 0,0.220988 -0.1103,0.552488 -0.2206,0.662988 l 0.1103,0 c 0.330887,0.1105 4.963237,13.7018 7.058825,16.132762 0.661762,0 1.213237,0.221 1.7647,0.3315 1.433825,-2.099475 2.536775,-7.624387 2.86765,-9.060875 -0.110288,-0.331487 -0.110288,-0.552487 -0.110288,-0.883987 0.110288,-0.773488 0.551463,-1.104975 1.102938,-0.662988 0.441175,0.442 0.772062,1.325988 0.661762,1.988975 -0.110287,0.552488 -0.330887,0.883988 -0.661762,0.883988 -0.330888,1.215475 -1.875,5.414425 -1.9853,8.839875 0.441175,0.331487 0.772062,0.773487 0.99265,1.215475 0,0.1105 3.088237,-1.988963 4.080887,-2.651963 0,-0.1105 0,-0.220987 0,-0.331487 0.110288,-0.5525 0.441175,-0.883988 0.661763,-0.773488 0.330875,0.110488 0.441175,0.662988 0.330875,1.104975 -0.110288,0.5525 -0.330875,0.883988 -0.661763,0.773488 -0.110287,0 -0.110287,-0.110488 -0.220587,-0.110488 -0.77205,0.662988 -3.419113,2.541463 -3.75,3.42545 0.220587,1.104975 0.1103,2.320463 -0.220588,3.42545 0,0.1105 1.433825,1.104975 1.875,1.436475 0.1103,-0.1105 0.1103,-0.1105 0.220588,-0.1105 l 0,0 0.1103,0.1105 z"
       style="fill:#6aa046;fill-opacity:1;fill-rule:evenodd;stroke:none"
       id="path1862"
       inkscape:connector-curvature="0" />
    <g
       id="g1872"
       transform="matrix(1.25,0,0,-1.25,2.3360796,125.2675)">
      <g
         id="g1874"
         clip-path="url(#clipPath1834)">
        <g
           id="g1876">
          <g
             id="g1878"
             clip-path="url(#clipPath1838)">
            <g
               id="g1880">
              <g
                 id="g1882" />
              <g
                 id="g1884">
                <g
                   id="g1886"
                   clip-path="url(#clipPath1842)">
                  <g
                     id="g1888">
                    <g
                       id="g1890"
                       clip-path="url(#clipPath1846)">
                      <g
                         id="g1892">
                        <g
                           id="g1894" />
                        <g
                           id="g1896">
                          <g
                             id="g1898"
                             clip-path="url(#clipPath1850)">
                            <g
                               id="g1900">
                              <g
                                 id="g1902"
                                 transform="translate(59.35591,29.75488)">
                                <path
                                   inkscape:connector-curvature="0"
                                   id="path1904"
                                   style="fill:#413d3d;fill-opacity:1;fill-rule:evenodd;stroke:none"
                                   d="m 0.17891,-7.98569 c 0.03848,0 0.07674,-0.01311 0.11522,-0.01311 0.62606,0 0.97128,0.29265 1.16324,0.93088 L 2.66111,0 4.30999,0 3.0295,-7.54669 C 2.88885,-8.38451 1.2015,-8.95649 0,-9.0625 l 0.17891,1.07681 0,0 z" />
                              </g>
                            </g>
                            <g
                               id="g1906">
                              <g
                                 id="g1908"
                                 transform="translate(71.77233,28.39242)">
                                <path
                                   inkscape:connector-curvature="0"
                                   id="path1910"
                                   style="fill:#413d3d;fill-opacity:1;fill-rule:evenodd;stroke:none"
                                   d="m 5.0362,-5.6656 -1.62345,0 0.66477,3.93655 c 0.06369,0.39922 -0.34521,0.55881 -0.70303,0.55881 -0.1663,0 -0.53695,-0.06694 -0.95867,-0.15959 L 1.68713,-5.6656 0,-5.6656 0.86911,-0.5324 c 1.63627,0.439 2.72255,0.47925 2.72255,0.47925 C 4.69098,0 5.94378,-0.31929 5.6879,-1.83514 l -0.6517,-3.83046 0,0 z" />
                              </g>
                            </g>
                            <g
                               id="g1912">
                              <g
                                 id="g1914"
                                 transform="translate(64.97654,28.39242)">
                                <path
                                   inkscape:connector-curvature="0"
                                   id="path1916"
                                   style="fill:#413d3d;fill-opacity:1;fill-rule:evenodd;stroke:none"
                                   d="m 5.03597,-5.6656 -1.62322,0 0.66477,3.93655 c 0.06369,0.39922 -0.34521,0.55881 -0.70303,0.55881 -0.16653,0 -0.53695,-0.06694 -0.95867,-0.15959 L 1.68713,-5.6656 0,-5.6656 0.86911,-0.5324 c 1.63605,0.439 2.72255,0.47925 2.72255,0.47925 C 4.69076,0 5.94378,-0.31929 5.6879,-1.83514 l -0.65193,-3.83046 0,0 z" />
                              </g>
                            </g>
                            <g
                               id="g1918">
                              <g
                                 id="g1920"
                                 transform="translate(79.06164,28.27258)">
                                <path
                                   inkscape:connector-curvature="0"
                                   id="path1922"
                                   style="fill:#413d3d;fill-opacity:1;fill-rule:evenodd;stroke:none"
                                   d="M 0.85651,0 2.53374,0 1.86627,-3.94968 C 1.78975,-4.3756 2.09671,-4.54837 2.4696,-4.54837 c 0.74579,0 1.11868,0.3992 1.27283,1.31656 L 4.27983,0 5.90303,0 5.21261,-4.10936 C 5.04655,-5.06696 2.81684,-5.67881 1.6617,-5.63847 0.49869,-5.5856 0,-5.1199 0.17891,-4.01645 c 0,0.01362 0.40912,2.40723 0.6776,4.01645 l 0,0 z" />
                              </g>
                            </g>
                            <g
                               id="g1924">
                              <g
                                 id="g1926"
                                 transform="translate(86.16979,28.39242)">
                                <path
                                   inkscape:connector-curvature="0"
                                   id="path1928"
                                   style="fill:#413d3d;fill-opacity:1;fill-rule:evenodd;stroke:none"
                                   d="m 5.0362,-5.6656 -1.62345,0 0.66477,3.93655 c 0.06391,0.39922 -0.34521,0.55881 -0.70303,0.55881 -0.1663,0 -0.53672,-0.06694 -0.95845,-0.15959 L 1.68713,-5.6656 0,-5.6656 0.86933,-0.5324 c 1.63605,0.439 2.72233,0.47925 2.72233,0.47925 C 4.69098,0 5.94378,-0.31929 5.68816,-1.83514 l -0.65197,-3.83046 0,0 10e-6,0 z" />
                              </g>
                            </g>
                            <g
                               id="g1930">
                              <g
                                 id="g1932"
                                 transform="translate(95.37104,25.71063)">
                                <path
                                   inkscape:connector-curvature="0"
                                   id="path1934"
                                   style="fill:#413d3d;fill-opacity:1;fill-rule:evenodd;stroke:none"
                                   d="m 1.80753,-0.60309 c -0.4296,0 -0.61369,-0.25573 -0.6956,-0.83779 0.38887,0.0782 0.60018,0.13538 0.60018,0.13538 0.20479,0.04938 0.38212,0.15593 0.41633,0.37598 0.04096,0.23413 -0.12287,0.32643 -0.32091,0.32643 l 0,0 z M 1.26181,-3.0372 C 0.60694,-3.0372 0,-2.89553 0.13638,-2.08668 l 0.21153,1.24945 C 0.43658,-0.32643 1.62344,0 2.23736,-0.02835 2.85825,-0.05661 3.131,-0.29808 3.02861,-0.88717 2.87197,-1.81667 1.9169,-1.74598 1.26181,-1.8808 1.11193,-1.90915 1.01651,-1.96584 0.98928,-2.14329 0.95485,-2.35638 1.18011,-2.44134 1.36442,-2.44134 c 0,0 0.2453,0 1.38468,0.29805 L 2.64671,-2.74645 C 1.56899,-3.0372 1.26181,-3.0372 1.26181,-3.0372 l 0,0 z" />
                              </g>
                            </g>
                            <g
                               id="g1936">
                              <g
                                 id="g1938"
                                 transform="translate(98.67937,23.43246)">
                                <path
                                   inkscape:connector-curvature="0"
                                   id="path1940"
                                   style="fill:#413d3d;fill-opacity:1;fill-rule:evenodd;stroke:none"
                                   d="M 0,-0.71669 0.12265,0 1.00976,0 0.88689,-0.71669 l -0.88689,0 0,0 z" />
                              </g>
                            </g>
                            <g
                               id="g1942">
                              <g
                                 id="g1944"
                                 transform="translate(100.68831,26.73735)">
                                <path
                                   inkscape:connector-curvature="0"
                                   id="path1946"
                                   style="fill:#413d3d;fill-opacity:1;fill-rule:evenodd;stroke:none"
                                   d="m 0.66815,0 1.16908,0 -0.57542,-3.39855 0.18589,0 c 0,0 1.21544,0 1.79086,3.39855 L 4.66758,0 C 3.34996,-3.6785 1.95786,-3.97804 1.95786,-3.97804 0.56598,-4.28663 0,-3.95837 0.18543,-2.85811 L 0.66815,0 l 0,0 z" />
                              </g>
                            </g>
                            <g
                               id="g1948">
                              <g
                                 id="g1950"
                                 transform="translate(104.31778,23.43246)">
                                <path
                                   inkscape:connector-curvature="0"
                                   id="path1952"
                                   style="fill:#413d3d;fill-opacity:1;fill-rule:nonzero;stroke:none"
                                   d="M 0,-0.71669 0.12265,0 1.00931,0 0.88666,-0.71669 l -0.88666,0 0,0 z" />
                              </g>
                            </g>
                            <g
                               id="g1954">
                              <g
                                 id="g1956"
                                 transform="translate(66.93755,26.52124)">
                                <path
                                   inkscape:connector-curvature="0"
                                   id="path1958"
                                   style="fill:#413d3d;fill-opacity:1;fill-rule:evenodd;stroke:none"
                                   d="m 1.94368,-1.23224 c 0,0 -0.17531,-0.1019 -0.34634,-0.13793 C 1.27913,-1.43711 0.77481,-1.53828 0.49171,-1.56855 0.13998,-1.60576 0,-1.79373 0,-1.79373 l 0.22482,1.27249 c 0,0 0.1618,0.09347 0.35309,0.12485 0.35263,0.05762 0.90421,0.1519 1.18484,0.22051 C 2.02987,-0.11049 2.14689,0 2.14689,0 L 1.94368,-1.23224 Z" />
                              </g>
                            </g>
                          </g>
                        </g>
                      </g>
                    </g>
                  </g>
                </g>
              </g>
            </g>
          </g>
        </g>
      </g>
    </g>
  </g>
</svg>
