<?xml version="1.0" encoding="UTF-8" standalone="no"?>
<!-- Created with Inkscape (http://www.inkscape.org/) -->

<svg
   xmlns:dc="http://purl.org/dc/elements/1.1/"
   xmlns:cc="http://creativecommons.org/ns#"
   xmlns:rdf="http://www.w3.org/1999/02/22-rdf-syntax-ns#"
   xmlns:svg="http://www.w3.org/2000/svg"
   xmlns="http://www.w3.org/2000/svg"
   xmlns:sodipodi="http://sodipodi.sourceforge.net/DTD/sodipodi-0.dtd"
   xmlns:inkscape="http://www.inkscape.org/namespaces/inkscape"
   id="svg2"
   version="1.1"
   inkscape:version="0.91 r"
   xml:space="preserve"
   width="612.5"
   height="381.25"
   viewBox="0 0 612.5 381.25"
   sodipodi:docname="logo-ljr.svg"><metadata
     id="metadata8"><rdf:RDF><cc:Work
         rdf:about=""><dc:format>image/svg+xml</dc:format><dc:type
           rdf:resource="http://purl.org/dc/dcmitype/StillImage" /><dc:title></dc:title></cc:Work></rdf:RDF></metadata><defs
     id="defs6" /><sodipodi:namedview
     pagecolor="#ffffff"
     bordercolor="#666666"
     borderopacity="1"
     objecttolerance="10"
     gridtolerance="10"
     guidetolerance="10"
     inkscape:pageopacity="0"
     inkscape:pageshadow="2"
     inkscape:window-width="640"
     inkscape:window-height="480"
     id="namedview4"
     showgrid="false"
     inkscape:zoom="0.59428571"
     inkscape:cx="306.25"
     inkscape:cy="190.625"
     inkscape:window-x="0"
     inkscape:window-y="0"
     inkscape:window-maximized="0"
     inkscape:current-layer="g10" /><g
     id="g10"
     inkscape:groupmode="layer"
     inkscape:label="ink_ext_XXXXXX"
     transform="matrix(1.25,0,0,-1.25,0,381.25)"><g
       id="g12"
       transform="scale(0.1,0.1)"><path
         d="m 1040.4,2539.08 c 39.25,-43.98 54.62,-97.87 45.97,-161.72 -8.62,-63.82 -39.06,-121.91 -91.343,-174.3 -54.558,-50 -113.91,-77.95 -178.015,-83.82 -64.106,-5.87 -117.297,11.78 -159.496,52.93 -39.301,43.98 -54.641,97.9 -46.024,161.72 8.617,63.82 39.086,121.94 91.371,174.32 54.563,50.01 113.879,77.93 177.985,83.8 64.136,5.9 117.297,-11.78 159.552,-52.93"
         style="fill:#f68712;fill-opacity:1;fill-rule:nonzero;stroke:none"
         id="path14"
         inkscape:connector-curvature="0" /><path
         d="m 1612.11,2764.88 c 20.06,-54.94 17.15,-112.86 -8.86,-173.77 -25.98,-60.89 -68.6,-109.82 -127.9,-146.81 -60.52,-33.97 -118.59,-44.67 -174.17,-32.08 -55.57,12.59 -95.08,45.39 -118.45,98.37 -20.11,54.95 -17.16,112.89 8.82,173.78 25.97,60.89 68.63,109.84 127.93,146.83 60.52,33.97 118.56,44.65 174.13,32.06 55.61,-12.57 95.09,-45.39 118.5,-98.38"
         style="fill:#f68712;fill-opacity:1;fill-rule:nonzero;stroke:none"
         id="path16"
         inkscape:connector-curvature="0" /><path
         d="m 2135.06,2848.06 c 6.23,-58.47 -8.4,-115.21 -44.02,-170.19 -35.59,-54.98 -83.35,-94.71 -143.33,-119.23 -60.42,-21.29 -113.83,-20.05 -160.19,3.75 -46.36,23.79 -74.35,64.32 -83.91,121.52 -6.27,58.49 8.4,115.24 43.98,170.22 35.59,54.96 83.39,94.72 143.37,119.24 60.42,21.29 113.79,20.03 160.16,-3.77 46.4,-23.78 74.34,-64.31 83.94,-121.54"
         style="fill:#f68712;fill-opacity:1;fill-rule:nonzero;stroke:none"
         id="path18"
         inkscape:connector-curvature="0" /><path
         d="m 2609.66,2866.02 c -3.52,-58.46 -25.61,-112.02 -66.34,-160.64 -40.7,-48.62 -90.01,-80.39 -147.95,-95.32 -57.84,-11.68 -105.82,-2.28 -143.92,28.22 -38.11,30.5 -57.01,74.64 -56.68,132.36 3.49,58.49 25.61,112.06 66.31,160.67 40.7,48.62 90.04,80.39 147.98,95.32 57.84,11.69 105.79,2.28 143.89,-28.22 38.14,-30.5 57.01,-74.64 56.71,-132.39"
         style="fill:#f68712;fill-opacity:1;fill-rule:nonzero;stroke:none"
         id="path20"
         inkscape:connector-curvature="0" /><path
         d="m 3052.2,2860.01 c -11.32,-56.76 -38.78,-106.21 -82.48,-148.29 -43.67,-42.08 -92.8,-66.49 -147.43,-73.24 -54.08,-3.58 -96.3,12.15 -126.62,47.19 -30.32,35.04 -41.33,80.84 -33.02,137.32 11.29,56.79 38.78,106.24 82.45,148.32 43.67,42.07 92.83,66.49 147.46,73.24 54.08,3.58 96.27,-12.15 126.59,-47.19 30.35,-35.04 41.34,-80.84 33.05,-137.35"
         style="fill:#f68712;fill-opacity:1;fill-rule:nonzero;stroke:none"
         id="path22"
         inkscape:connector-curvature="0" /><path
         d="m 3457.75,2773.13 c -18.11,-53.92 -49.81,-98.5 -95.17,-133.67 -45.34,-35.18 -93.17,-52.37 -143.53,-51.55 -49.42,3.83 -85.44,24.91 -108.02,63.25 -22.58,38.34 -26.2,84.57 -10.85,138.61 18.08,53.94 49.81,98.52 95.14,133.7 45.34,35.18 93.2,52.36 143.56,51.55 49.42,-3.83 85.41,-24.92 107.99,-63.26 22.61,-38.34 26.2,-84.56 10.88,-138.63"
         style="fill:#f68712;fill-opacity:1;fill-rule:nonzero;stroke:none"
         id="path24"
         inkscape:connector-curvature="0" /><path
         d="m 3842.91,2648.25 c -25.37,-49.66 -61.21,-87.91 -107.56,-114.65 -46.33,-26.75 -91.78,-35.49 -136.36,-26.2 -43.24,12.08 -71.59,38.78 -85.03,80.07 -13.44,41.3 -8.69,87.11 14.25,137.37 25.36,49.69 61.23,87.93 107.56,114.68 46.33,26.75 91.8,35.48 136.38,26.19 43.24,-12.08 71.56,-38.76 85.01,-80.06 13.47,-41.31 8.69,-87.11 -14.25,-137.4"
         style="fill:#f68712;fill-opacity:1;fill-rule:nonzero;stroke:none"
         id="path26"
         inkscape:connector-curvature="0" /><path
         d="m 4174.14,2466.68 c -31,-44.14 -69.3,-75.4 -114.94,-93.68 -45.61,-18.28 -87.35,-19.16 -125.23,-2.61 -36.2,19.05 -56.72,49.84 -61.53,92.36 -4.8,42.51 7.27,86.37 36.23,131.49 30.99,44.19 69.31,75.43 114.93,93.72 45.62,18.29 87.38,19.15 125.26,2.6 36.2,-19.05 56.69,-49.83 61.5,-92.34 4.83,-42.53 -7.27,-86.37 -36.22,-131.54"
         style="fill:#f68712;fill-opacity:1;fill-rule:nonzero;stroke:none"
         id="path28"
         inkscape:connector-curvature="0" /><path
         d="m 4444.56,2252.87 c -34.91,-37.69 -74.06,-61.64 -117.45,-71.74 -43.39,-10.12 -80.36,-3.98 -110.95,18.45 -28.68,24.57 -41.51,57.91 -38.47,100.02 3.04,42.11 21.21,82.69 54.48,121.67 34.92,37.73 74.08,61.66 117.46,71.78 43.38,10.12 80.37,3.96 110.96,-18.47 28.69,-24.57 41.5,-57.9 38.46,-100.01 -3.03,-42.12 -21.21,-82.68 -54.49,-121.7"
         style="fill:#f68712;fill-opacity:1;fill-rule:nonzero;stroke:none"
         id="path30"
         inkscape:connector-curvature="0" /><path
         d="m 4644.51,1969.62 c -38.56,-28.49 -77.44,-42.65 -116.63,-42.38 -39.19,0.26 -69.08,14.82 -89.68,43.72 -18.48,30.54 -21.44,65.92 -8.85,106.11 12.58,40.2 37.63,75.4 75.11,105.54 38.56,28.53 77.45,42.67 116.64,42.41 39.19,-0.25 69.09,-14.84 89.69,-43.73 18.48,-30.54 21.42,-65.9 8.84,-106.1 -12.58,-40.22 -37.63,-75.39 -75.12,-105.57"
         style="fill:#f68712;fill-opacity:1;fill-rule:nonzero;stroke:none"
         id="path32"
         inkscape:connector-curvature="0" /><path
         d="m 4755.85,1643.67 c -39.57,-17.39 -75.54,-20.83 -107.89,-10.23 -32.34,10.58 -53.13,32.56 -62.38,65.95 -7.06,34.41 0.04,69.4 21.28,104.97 21.25,35.57 51.45,63 90.57,82.27 39.59,17.43 75.56,20.85 107.91,10.26 32.34,-10.58 53.14,-32.57 62.39,-65.96 7.05,-34.41 -0.05,-69.39 -21.3,-104.95 -21.23,-35.59 -51.44,-63.01 -90.58,-82.31"
         style="fill:#f68712;fill-opacity:1;fill-rule:nonzero;stroke:none"
         id="path34"
         inkscape:connector-curvature="0" /><path
         d="m 4754.32,1317.45 c -37.16,-5.72 -67.42,0.98 -90.73,20.19 -23.32,19.18 -34,46.11 -32.03,80.8 4.05,35.07 19.78,66.76 47.19,95.06 27.41,28.3 59.8,46.29 97.13,53.93 37.18,5.75 67.44,-0.98 90.75,-20.16 23.32,-19.18 33.99,-46.13 32.02,-80.82 -4.05,-35.07 -19.78,-66.74 -47.19,-95.04 -27.41,-28.32 -59.8,-46.29 -97.14,-53.96"
         style="fill:#f68712;fill-opacity:1;fill-rule:nonzero;stroke:none"
         id="path36"
         inkscape:connector-curvature="0" /><path
         d="m 4586.2,1008.96 c -31.68,4.81 -54.27,19.6 -67.71,44.41 -13.44,24.8 -14.46,53.5 -3.06,86.13 13.2,32.42 34.89,58.38 65.07,77.86 30.18,19.47 61.48,27.71 93.84,24.7 31.71,-4.79 54.3,-19.6 67.74,-44.4 13.44,-24.79 14.46,-53.52 3.05,-86.15 -13.19,-32.41 -34.88,-58.35 -65.06,-77.83 -30.19,-19.5 -61.48,-27.72 -93.87,-24.72"
         style="fill:#f68712;fill-opacity:1;fill-rule:nonzero;stroke:none"
         id="path38"
         inkscape:connector-curvature="0" /><path
         d="m 4338.35,812.348 c -25.48,11.265 -41.19,30.078 -47.08,56.476 -5.89,26.383 -0.54,53.852 16.05,82.418 18.05,27.988 41.81,48.043 71.28,60.158 29.47,12.11 57.45,13.31 83.88,3.61 25.51,-11.26 41.22,-30.084 47.11,-56.467 5.89,-26.379 0.54,-53.863 -16.06,-82.434 -18.05,-27.984 -41.8,-48.023 -71.27,-60.136 -29.48,-12.129 -57.45,-13.317 -83.91,-3.625"
         style="fill:#f68712;fill-opacity:1;fill-rule:nonzero;stroke:none"
         id="path40"
         inkscape:connector-curvature="0" /><path
         d="m 4110.76,630.379 c -19.49,15.117 -29.34,35.59 -29.52,61.441 -0.18,25.84 9.33,50.7 28.55,74.594 20.33,23.086 44.06,37.707 71.17,43.844 27.11,6.14 50.97,2.301 71.54,-11.52 19.52,-15.113 29.36,-35.597 29.55,-61.433 0.18,-25.84 -9.34,-50.715 -28.55,-74.606 -20.34,-23.09 -44.06,-37.695 -71.17,-43.836 -27.12,-6.152 -50.96,-2.297 -71.57,11.516"
         style="fill:#f68712;fill-opacity:1;fill-rule:nonzero;stroke:none"
         id="path42"
         inkscape:connector-curvature="0" /><path
         d="m 3890.22,518.707 c -14.34,16.828 -19.71,37.238 -16.04,61.234 3.65,23.985 15.41,45.664 35.28,65.047 20.7,18.473 43.04,28.606 67,30.387 23.96,1.777 43.69,-5.227 59.15,-21.012 14.37,-16.832 19.72,-37.25 16.07,-61.234 -3.65,-23.984 -15.43,-45.676 -35.29,-65.059 -20.71,-18.472 -43.03,-28.593 -67,-30.375 -23.97,-1.793 -43.69,5.227 -59.17,21.012"
         style="fill:#f68712;fill-opacity:1;fill-rule:nonzero;stroke:none"
         id="path44"
         inkscape:connector-curvature="0" /><path
         d="m 3694.13,428.488 c -10.68,16.672 -13.3,35.739 -7.81,57.211 5.47,21.465 17.68,40.059 36.62,55.793 19.58,14.824 39.75,21.91 60.5,21.246 20.75,-0.66 37.01,-8.91 48.75,-24.738 10.7,-16.672 13.31,-35.75 7.83,-57.215 -5.47,-21.461 -17.68,-40.066 -36.64,-55.797 -19.57,-14.828 -39.73,-21.902 -60.48,-21.242 -20.76,0.652 -37.01,8.914 -48.77,24.742"
         style="fill:#f68712;fill-opacity:1;fill-rule:nonzero;stroke:none"
         id="path46"
         inkscape:connector-curvature="0" /><path
         d="m 3517.88,370.141 c -7.75,15.711 -8.46,32.933 -2.08,51.668 6.38,18.726 18.25,34.367 35.63,46.929 17.84,11.7 35.57,16.446 53.17,14.235 17.61,-2.219 30.78,-10.852 39.51,-25.895 7.77,-15.715 8.46,-32.945 2.09,-51.672 -6.37,-18.726 -18.25,-34.375 -35.63,-46.933 -17.85,-11.703 -35.57,-16.442 -53.17,-14.227 -17.61,2.207 -30.77,10.848 -39.52,25.895"
         style="fill:#f68712;fill-opacity:1;fill-rule:nonzero;stroke:none"
         id="path48"
         inkscape:connector-curvature="0" /><path
         d="m 3374.93,325.168 c -5.23,14.332 -4.47,29.441 2.32,45.332 6.77,15.883 17.89,28.648 33.36,38.297 15.79,8.863 30.94,11.656 45.44,8.371 14.5,-3.285 24.8,-11.844 30.9,-25.66 5.24,-14.336 4.48,-29.453 -2.3,-45.336 -6.78,-15.883 -17.91,-28.652 -33.38,-38.305 -15.79,-8.859 -30.93,-11.648 -45.42,-8.363 -14.51,3.277 -24.81,11.84 -30.92,25.664"
         style="fill:#f68712;fill-opacity:1;fill-rule:nonzero;stroke:none"
         id="path50"
         inkscape:connector-curvature="0" /><path
         d="m 3254.21,296.965 c -3.88,12.207 -2.79,24.887 3.29,38.043 6.07,13.152 15.63,23.551 28.69,31.207 13.29,6.976 25.87,8.875 37.73,5.68 11.86,-3.192 20.1,-10.696 24.71,-22.497 3.89,-12.207 2.8,-24.894 -3.28,-38.046 -6.07,-13.153 -15.64,-23.555 -28.7,-31.207 -13.29,-6.981 -25.86,-8.872 -37.72,-5.68 -11.87,3.191 -20.1,10.695 -24.72,22.5"
         style="fill:#f68712;fill-opacity:1;fill-rule:nonzero;stroke:none"
         id="path52"
         inkscape:connector-curvature="0" /><path
         d="m 393.012,544.605 0,2037.855 -392.629187,-192.89 0,-1844.965 392.629187,0"
         style="fill:#24477c;fill-opacity:1;fill-rule:nonzero;stroke:none"
         id="path54"
         inkscape:connector-curvature="0" /><path
         d="m 1019.54,653.805 0,1360.795 -393.282,0 0,-1377.596 c 0,-229.598 -59.844,-285.598 -330.574,-336 L 432.473,4.20703 C 891.293,77.0039 1019.54,242.207 1019.54,653.805"
         style="fill:#24477c;fill-opacity:1;fill-rule:nonzero;stroke:none"
         id="path56"
         inkscape:connector-curvature="0" /><path
         d="m 2214.15,1939.52 c -51.21,53.11 -147.94,103.42 -275.98,103.42 -139.41,0 -238.99,-58.7 -307.27,-128.58 l 0,97.83 -392.63,0 0,-1467.585 392.63,0 0,793.895 c 0,254.38 99.58,318.68 253.22,318.68 88.2,0 165.02,-39.14 227.61,-95.05 l 102.42,377.39"
         style="fill:#24477c;fill-opacity:1;fill-rule:nonzero;stroke:none"
         id="path58"
         inkscape:connector-curvature="0" /><path
         d="m 1748.91,544.32 0,174.973 -18,-10.082 0,-164.891 18,0"
         style="fill:#24477c;fill-opacity:1;fill-rule:nonzero;stroke:none"
         id="path60"
         inkscape:connector-curvature="0" /><path
         d="m 1877.8,544.32 0,87.848 c 0,29.281 -17.05,40.801 -44.17,40.801 -16.32,0 -31.2,-4.078 -42.24,-10.078 l 6.72,-14.645 c 10.32,6.004 21.12,9.602 34.32,9.602 18.48,0 27.37,-9.121 27.37,-27.84 l 0,-14.883 c -7.44,4.082 -18.73,7.203 -31.45,7.203 -24.96,0 -48.24,-12.004 -48.24,-40.328 0,-30.48 20.64,-40.32 40.32,-40.32 18,0 30.48,8.402 39.37,18 l 0,-15.36 18,0 z m -18,30.961 c -7.69,-10.558 -19.92,-18.961 -36.25,-18.961 -15.36,0 -25.68,8.16 -25.68,26.883 0,15.84 11.04,24.723 29.52,24.723 15.36,0 24.25,-2.641 32.41,-7.203 l 0,-25.442"
         style="fill:#24477c;fill-opacity:1;fill-rule:evenodd;stroke:none"
         id="path62"
         inkscape:connector-curvature="0" /><path
         d="m 2011.43,544.32 0,76.805 c 0,36.242 -17.52,51.844 -44.16,51.844 -15.85,0 -27.61,-7.438 -34.81,-18 l 0,15.363 -18,0 0,-126.012 18,0 0,73.688 c 0,27.601 13.68,39.359 31.2,39.359 20.16,0 29.77,-12.238 29.77,-39.359 l 0,-73.688 18,0"
         style="fill:#24477c;fill-opacity:1;fill-rule:evenodd;stroke:none"
         id="path64"
         inkscape:connector-curvature="0" /><path
         d="m 2142.46,544.32 0,174.973 -18,-10.082 0,-53.043 c -8.89,10.082 -19.69,16.801 -35.53,16.801 -26.4,0 -47.52,-23.043 -47.52,-67.684 0,-44.402 19.92,-63.605 45.13,-63.605 17.03,0 29.03,8.402 37.92,18 l 0,-15.36 18,0 z m -18,31.203 c -8.89,-11.043 -19.92,-18.242 -33.37,-18.242 -19.92,0 -31.92,16.563 -31.92,48.242 0,33.844 10.32,51.844 31.21,51.844 14.87,0 27.12,-8.398 34.08,-18.961 l 0,-62.883"
         style="fill:#24477c;fill-opacity:1;fill-rule:evenodd;stroke:none"
         id="path66"
         inkscape:connector-curvature="0" /><path
         d="m 2275.86,611.043 c 0,36.004 -17.77,61.926 -50.65,61.926 -30,0 -52.08,-24.961 -52.08,-65.043 0,-49.446 28.08,-66.246 51.12,-66.246 18.96,0 30.01,5.039 45.13,14.64 l -8.4,12.961 c -11.52,-7.679 -20.17,-12 -34.81,-12 -20.64,0 -33.36,17.039 -35.04,43.922 l 84.01,0 c 0.48,2.883 0.72,5.52 0.72,9.84 z m -16.81,4.801 -67.92,0 c 2.16,28.086 15.12,41.523 33.84,41.523 22.08,0 32.65,-17.039 34.08,-41.523"
         style="fill:#24477c;fill-opacity:1;fill-rule:evenodd;stroke:none"
         id="path68"
         inkscape:connector-curvature="0" /><path
         d="m 2385,577.203 c 0,22.563 -13.92,29.52 -37.68,40.32 -21.36,9.602 -27.84,13.926 -27.84,24.485 0,9.121 7.68,15.601 20.88,15.601 13.44,0 21.6,-3.601 31.44,-11.281 l 10.08,13.199 c -9.6,7.922 -23.04,13.442 -40.32,13.442 -22.81,0 -39.36,-12.961 -39.36,-32.16 0,-20.164 10.55,-27.844 35.76,-38.645 22.32,-9.601 29.76,-15.363 29.76,-25.684 0,-12.238 -8.16,-19.441 -25.44,-19.441 -12.48,0 -24.24,5.043 -34.33,13.922 l -10.56,-13.203 c 12,-9.598 27.13,-16.078 44.41,-16.078 21.84,0 43.2,10.8 43.2,35.523"
         style="fill:#24477c;fill-opacity:1;fill-rule:nonzero;stroke:none"
         id="path70"
         inkscape:connector-curvature="0" /><path
         d="m 2444.48,702.492 c 0,8.883 -7.2,16.082 -15.84,16.082 -8.88,0 -16.08,-7.199 -16.08,-16.082 0,-8.64 7.2,-15.84 16.08,-15.84 8.64,0 15.84,7.2 15.84,15.84 z m -3.6,-152.41 0,120.25 -24.72,0 0,-120.73 c 0,-21.606 -3.36,-26.407 -26.41,-32.883 l 8.41,-18.723 c 34.8,7.199 42.72,20.402 42.72,52.086"
         style="fill:#24477c;fill-opacity:1;fill-rule:evenodd;stroke:none"
         id="path72"
         inkscape:connector-curvature="0" /><path
         d="m 2576.45,544.32 0,126.012 -24.73,0 0,-73.687 c 0,-20.403 -9.36,-32.165 -25.92,-32.165 -16.32,0 -25.92,9.122 -25.92,34.563 l 0,71.289 -24.72,0 0,-72.246 c 0,-37.203 15.6,-56.406 44.88,-56.406 12.96,0 25.44,5.519 31.68,14.64 l 0,-12 24.73,0"
         style="fill:#24477c;fill-opacity:1;fill-rule:evenodd;stroke:none"
         id="path74"
         inkscape:connector-curvature="0" /><path
         d="m 2710.82,556.32 0,114.012 -24.72,0 0,-11.762 c -6.72,7.68 -18.72,14.399 -31.44,14.399 -25.93,0 -49.69,-20.399 -49.69,-63.606 0,-48.004 21.6,-67.683 48.49,-67.683 13.2,0 23.52,6.238 32.64,14.64 l 0,-2.16 c 0,-26.164 -7.68,-35.762 -43.21,-37.441 l 8.41,-18.723 c 45.6,1.438 59.52,19.922 59.52,58.324 z m -24.24,24.243 c -6.48,-8.161 -16.8,-16.083 -28.56,-16.083 -18.25,0 -28.32,13.922 -28.32,45.606 0,26.641 9.6,40.082 27.35,40.082 12.49,0 24.01,-9.121 29.53,-16.563 l 0,-53.042"
         style="fill:#24477c;fill-opacity:1;fill-rule:evenodd;stroke:none"
         id="path76"
         inkscape:connector-curvature="0" /><path
         d="m 2847.11,609.844 c 0,34.086 -17.28,63.125 -53.04,63.125 -32.64,0 -55.21,-23.043 -55.21,-65.762 0,-41.766 24.97,-65.527 54.49,-65.527 19.2,0 32.4,6 43.44,16.558 l -14.64,15.844 c -8.4,-6.242 -16.8,-10.082 -27.36,-10.082 -15.36,0 -29.04,10.32 -31.68,34.563 l 83.28,0 c 0.25,2.64 0.72,6.722 0.72,11.281 z m -24.96,9.121 -58.56,0 c 2.16,20.16 12.24,31.683 28.8,31.683 20.4,0 28.56,-14.402 29.76,-31.683"
         style="fill:#24477c;fill-opacity:1;fill-rule:evenodd;stroke:none"
         id="path78"
         inkscape:connector-curvature="0" /><path
         d="m 2976.7,544.32 0,72.246 c 0,37.204 -15.6,56.403 -44.88,56.403 -12.96,0 -25.44,-5.52 -31.68,-14.641 l 0,12.004 -24.73,0 0,-126.012 24.73,0 0,73.688 c 0,20.398 9.36,32.16 25.92,32.16 16.32,0 25.92,-9.121 25.92,-34.563 l 0,-71.285 24.72,0"
         style="fill:#24477c;fill-opacity:1;fill-rule:evenodd;stroke:none"
         id="path80"
         inkscape:connector-curvature="0" /><path
         d="m 3110.12,544.32 0,174.973 -24.49,-12.719 0,-48.004 c -6.96,7.68 -18.96,14.399 -31.68,14.399 -26.16,0 -49.68,-20.399 -49.68,-63.606 0,-48.004 21.36,-67.683 48.48,-67.683 13.2,0 23.76,6.238 32.88,14.64 l 0,-12 24.49,0 z m -24.25,36.243 c -6.48,-8.161 -16.8,-16.083 -28.56,-16.083 -18.24,0 -28.32,13.922 -28.32,45.606 0,26.641 9.6,40.082 27.36,40.082 12.48,0 24,-9.121 29.52,-16.563 l 0,-53.042"
         style="fill:#24477c;fill-opacity:1;fill-rule:evenodd;stroke:none"
         id="path82"
         inkscape:connector-curvature="0" /><path
         d="m 3214.73,669.848 c -4.32,1.922 -10.32,3.121 -19.69,3.121 -13.44,0 -25.44,-8.16 -31.2,-18.239 l 0,15.602 -18,0 0,-126.012 18,0 0,73.926 c 0,24.004 9.84,38.164 27.36,38.164 8.41,0 13.93,-1.922 18.97,-4.801 l 4.56,18.239"
         style="fill:#24477c;fill-opacity:1;fill-rule:evenodd;stroke:none"
         id="path84"
         inkscape:connector-curvature="0" /><path
         d="m 3264.15,705.613 c 0,7.2 -5.76,12.961 -12.49,12.961 -7.43,0 -13.2,-5.761 -13.2,-12.961 0,-6.961 5.77,-12.722 13.2,-12.722 6.73,0 12.49,5.761 12.49,12.722 z m -3.84,-161.293 0,126.012 -18,0 0,-126.012 18,0"
         style="fill:#24477c;fill-opacity:1;fill-rule:evenodd;stroke:none"
         id="path86"
         inkscape:connector-curvature="0" /><path
         d="m 3395.92,544.32 0,76.805 c 0,36.242 -17.52,51.844 -44.17,51.844 -15.84,0 -27.6,-7.438 -34.8,-18 l 0,15.363 -18,0 0,-126.012 18,0 0,73.688 c 0,27.601 13.68,39.359 31.2,39.359 20.17,0 29.76,-12.238 29.76,-39.359 l 0,-73.688 18.01,0"
         style="fill:#24477c;fill-opacity:1;fill-rule:evenodd;stroke:none"
         id="path88"
         inkscape:connector-curvature="0" /><path
         d="m 3526.95,555.602 0,114.73 -18,0 0,-14.164 c -8.88,10.082 -19.68,16.801 -35.53,16.801 -26.4,0 -47.52,-23.043 -47.52,-67.684 0,-44.402 19.92,-63.605 45.12,-63.605 17.05,0 29.05,8.402 37.93,18 l 0,-6.481 c 0,-29.281 -9.6,-40.324 -51.61,-41.523 l 5.77,-13.68 c 46.8,1.438 63.84,19.68 63.84,57.606 z m -18,19.921 c -8.88,-11.043 -19.93,-18.242 -33.36,-18.242 -19.93,0 -31.93,16.563 -31.93,48.242 0,33.844 10.32,51.844 31.2,51.844 14.89,0 27.12,-8.398 34.09,-18.961 l 0,-62.883"
         style="fill:#24477c;fill-opacity:1;fill-rule:evenodd;stroke:none"
         id="path90"
         inkscape:connector-curvature="0" /><path
         d="m 1338.21,287.582 0,72.246 c 0,37.203 -15.6,56.406 -44.88,56.406 -12.96,0 -25.44,-5.523 -31.69,-14.644 l 0,12.004 -24.72,0 0,-126.012 24.72,0 0,73.688 c 0,20.398 9.37,32.16 25.93,32.16 16.32,0 25.92,-9.121 25.92,-34.563 l 0,-71.285 24.72,0"
         style="fill:#24477c;fill-opacity:1;fill-rule:evenodd;stroke:none"
         id="path92"
         inkscape:connector-curvature="0" /><path
         d="m 1400.82,445.754 c 0,8.883 -7.2,16.082 -15.84,16.082 -8.88,0 -16.08,-7.199 -16.08,-16.082 0,-8.641 7.2,-15.84 16.08,-15.84 8.64,0 15.84,7.199 15.84,15.84 z m -3.6,-158.172 0,126.012 -24.72,0 0,-126.012 24.72,0"
         style="fill:#24477c;fill-opacity:1;fill-rule:evenodd;stroke:none"
         id="path94"
         inkscape:connector-curvature="0" /><path
         d="m 1534.71,353.109 c 0,34.082 -17.28,63.125 -53.05,63.125 -32.64,0 -55.2,-23.043 -55.2,-65.765 0,-41.766 24.96,-65.528 54.48,-65.528 19.2,0 32.4,6 43.45,16.563 l -14.64,15.84 c -8.41,-6.239 -16.8,-10.078 -27.37,-10.078 -15.36,0 -29.04,10.32 -31.68,34.562 l 83.29,0 c 0.24,2.641 0.72,6.719 0.72,11.281 z m -24.96,9.118 -58.57,0 c 2.16,20.164 12.24,31.683 28.8,31.683 20.41,0 28.56,-14.398 29.77,-31.683"
         style="fill:#24477c;fill-opacity:1;fill-rule:evenodd;stroke:none"
         id="path96"
         inkscape:connector-curvature="0" /><path
         d="m 1663.33,287.582 0,174.977 -24.48,-12.723 0,-48.004 c -6.96,7.68 -18.96,14.402 -31.68,14.402 -26.16,0 -49.69,-20.402 -49.69,-63.605 0,-48.008 21.37,-67.688 48.49,-67.688 13.2,0 23.76,6.239 32.88,14.641 l 0,-12 24.48,0 z m -24.24,36.242 c -6.48,-8.16 -16.8,-16.082 -28.56,-16.082 -18.24,0 -28.32,13.922 -28.32,45.606 0,26.64 9.6,40.082 27.36,40.082 12.48,0 24,-9.121 29.52,-16.559 l 0,-53.047"
         style="fill:#24477c;fill-opacity:1;fill-rule:evenodd;stroke:none"
         id="path98"
         inkscape:connector-curvature="0" /><path
         d="m 1799.63,353.109 c 0,34.082 -17.28,63.125 -53.04,63.125 -32.65,0 -55.21,-23.043 -55.21,-65.765 0,-41.766 24.96,-65.528 54.48,-65.528 19.2,0 32.41,6 43.44,16.563 l -14.63,15.84 c -8.4,-6.239 -16.81,-10.078 -27.37,-10.078 -15.36,0 -29.04,10.32 -31.68,34.562 l 83.29,0 c 0.24,2.641 0.72,6.719 0.72,11.281 z m -24.96,9.118 -58.57,0 c 2.16,20.164 12.24,31.683 28.81,31.683 20.39,0 28.55,-14.398 29.76,-31.683"
         style="fill:#24477c;fill-opacity:1;fill-rule:evenodd;stroke:none"
         id="path100"
         inkscape:connector-curvature="0" /><path
         d="m 1902.81,410.953 c -5.04,3.36 -11.28,5.281 -21.36,5.281 -12.48,0 -23.04,-6.242 -28.8,-14.644 l 0,12.004 -24.72,0 0,-126.012 24.72,0 0,72.008 c 0,21.359 9.12,32.402 24.72,32.402 8.16,0 13.68,-1.679 18.96,-4.562 l 6.48,23.523"
         style="fill:#24477c;fill-opacity:1;fill-rule:evenodd;stroke:none"
         id="path102"
         inkscape:connector-curvature="0" /><path
         d="m 2013.94,322.145 c 0,23.761 -14.4,31.441 -42.49,42.246 -18.96,7.437 -23.28,12 -23.28,18.238 0,6.723 5.28,11.523 17.28,11.523 12.01,0 22.33,-3.601 32.65,-10.8 l 10.8,18.961 c -11.28,8.16 -26.88,13.921 -42.72,13.921 -25.21,0 -42.97,-11.761 -42.97,-34.324 0,-19.922 9.84,-29.043 36.97,-39.601 18.24,-6.961 29.28,-11.524 29.28,-21.125 0,-8.879 -7.44,-13.918 -23.05,-13.918 -11.76,0 -24.96,4.32 -36.72,12.48 l -11.28,-18.723 c 12.72,-9.359 31.2,-16.082 48.25,-16.082 24.72,0 47.28,9.36 47.28,37.204"
         style="fill:#24477c;fill-opacity:1;fill-rule:nonzero;stroke:none"
         id="path104"
         inkscape:connector-curvature="0" /><path
         d="m 2139.64,287.582 0,86.406 c 0,28.563 -19.2,42.246 -47.28,42.246 -17.77,0 -31.2,-3.839 -43.21,-11.281 l 9.6,-18.723 c 9.84,5.52 19.93,7.922 32.89,7.922 15.36,0 23.76,-7.683 23.76,-21.363 l 0,-9.359 c -6.96,3.117 -16.32,4.797 -28.08,4.797 -28.57,0 -50.17,-12.719 -50.17,-40.801 0,-30.961 23.28,-42.485 43.69,-42.485 13.68,0 25.92,6.481 34.56,15.122 l 0,-12.481 24.24,0 z m -24.24,35.762 c -5.76,-7.918 -17.28,-16.078 -30.49,-16.078 -16.32,0 -24.24,8.398 -24.24,20.879 0,11.523 10.08,18.722 25.93,18.722 13.44,0 22.08,-2.16 28.8,-5.519 l 0,-18.004"
         style="fill:#24477c;fill-opacity:1;fill-rule:evenodd;stroke:none"
         id="path106"
         inkscape:connector-curvature="0" /><path
         d="m 2266.57,394.871 c -11.76,13.922 -26.16,21.363 -44.64,21.363 -30.73,0 -55.21,-24.242 -55.21,-66.007 0,-39.364 23.76,-65.286 54.49,-65.286 22.8,0 35.28,11.039 45.12,23.524 l -15.84,15.601 c -9.84,-10.324 -16.8,-15.601 -28.56,-15.601 -19.69,0 -30.25,17.762 -30.25,42.484 0,25.68 11.52,41.762 29.53,41.762 11.28,0 20.4,-4.801 30.72,-15.363 l 14.64,17.523"
         style="fill:#24477c;fill-opacity:1;fill-rule:nonzero;stroke:none"
         id="path108"
         inkscape:connector-curvature="0" /><path
         d="m 2396.9,287.582 0,72.246 c 0,37.203 -15.6,56.406 -44.88,56.406 -12.97,0 -25.45,-5.523 -31.69,-14.644 l 0,60.969 -24.72,-12.965 0,-162.012 24.72,0 0,73.688 c 0,20.398 9.37,32.16 25.92,32.16 16.33,0 25.93,-9.121 25.93,-34.563 l 0,-71.285 24.72,0"
         style="fill:#24477c;fill-opacity:1;fill-rule:nonzero;stroke:none"
         id="path110"
         inkscape:connector-curvature="0" /><path
         d="m 2518.07,322.145 c 0,23.761 -14.4,31.441 -42.48,42.246 -18.96,7.437 -23.29,12 -23.29,18.238 0,6.723 5.29,11.523 17.29,11.523 12,0 22.32,-3.601 32.64,-10.8 l 10.8,18.961 c -11.28,8.16 -26.88,13.921 -42.72,13.921 -25.2,0 -42.97,-11.761 -42.97,-34.324 0,-19.922 9.84,-29.043 36.96,-39.601 18.25,-6.961 29.29,-11.524 29.29,-21.125 0,-8.879 -7.44,-13.918 -23.04,-13.918 -11.76,0 -24.96,4.32 -36.73,12.48 l -11.28,-18.723 c 12.73,-9.359 31.21,-16.082 48.25,-16.082 24.72,0 47.28,9.36 47.28,37.204"
         style="fill:#24477c;fill-opacity:1;fill-rule:nonzero;stroke:none"
         id="path112"
         inkscape:connector-curvature="0" /><path
         d="m 2649.54,353.109 c 0,34.082 -17.29,63.125 -53.05,63.125 -32.64,0 -55.2,-23.043 -55.2,-65.765 0,-41.766 24.96,-65.528 54.48,-65.528 19.2,0 32.4,6 43.44,16.563 l -14.64,15.84 c -8.4,-6.239 -16.8,-10.078 -27.36,-10.078 -15.36,0 -29.04,10.32 -31.68,34.562 l 83.28,0 c 0.24,2.641 0.73,6.719 0.73,11.281 z m -24.97,9.118 -58.56,0 c 2.16,20.164 12.24,31.683 28.8,31.683 20.4,0 28.56,-14.398 29.76,-31.683"
         style="fill:#24477c;fill-opacity:1;fill-rule:evenodd;stroke:none"
         id="path114"
         inkscape:connector-curvature="0" /><path
         d="m 2779.12,287.582 0,72.246 c 0,37.203 -15.6,56.406 -44.88,56.406 -12.97,0 -25.45,-5.523 -31.69,-14.644 l 0,12.004 -24.72,0 0,-126.012 24.72,0 0,73.688 c 0,20.398 9.36,32.16 25.93,32.16 16.32,0 25.92,-9.121 25.92,-34.563 l 0,-71.285 24.72,0"
         style="fill:#24477c;fill-opacity:1;fill-rule:evenodd;stroke:none"
         id="path116"
         inkscape:connector-curvature="0" /><path
         d="m 2969.85,354.309 c 0,36.004 -17.76,61.925 -50.65,61.925 -30,0 -52.08,-24.964 -52.08,-65.046 0,-49.446 28.08,-66.247 51.12,-66.247 18.96,0 30.01,5.039 45.12,14.641 l -8.4,12.961 c -11.51,-7.68 -20.16,-12 -34.8,-12 -20.64,0 -33.36,17.043 -35.04,43.926 l 84.01,0 c 0.48,2.879 0.72,5.519 0.72,9.84 z m -16.8,4.796 -67.93,0 c 2.16,28.086 15.12,41.528 33.84,41.528 22.09,0 32.65,-17.043 34.09,-41.528"
         style="fill:#24477c;fill-opacity:1;fill-rule:evenodd;stroke:none"
         id="path118"
         inkscape:connector-curvature="0" /><path
         d="m 3025.23,300.301 c 0,8.402 -7.2,15.844 -15.37,15.844 -8.4,0 -15.36,-7.442 -15.36,-15.844 0,-8.399 6.96,-15.36 15.36,-15.36 8.17,0 15.37,6.961 15.37,15.36"
         style="fill:#24477c;fill-opacity:1;fill-rule:nonzero;stroke:none"
         id="path120"
         inkscape:connector-curvature="0" /><path
         d="m 3151.94,413.594 -18.73,0 -32.16,-99.129 -1.92,-6 -1.92,6 -32.16,99.129 -19.2,0 45.12,-126.012 15.84,0 45.13,126.012"
         style="fill:#24477c;fill-opacity:1;fill-rule:nonzero;stroke:none"
         id="path122"
         inkscape:connector-curvature="0" /><path
         d="m 3203.3,300.301 c 0,8.402 -7.2,15.844 -15.36,15.844 -8.4,0 -15.36,-7.442 -15.36,-15.844 0,-8.399 6.96,-15.36 15.36,-15.36 8.16,0 15.36,6.961 15.36,15.36"
         style="fill:#24477c;fill-opacity:1;fill-rule:nonzero;stroke:none"
         id="path124"
         inkscape:connector-curvature="0" /></g></g></svg>