<?xml version="1.0" encoding="UTF-8" standalone="no"?>
<!-- Created with Inkscape (http://www.inkscape.org/) -->

<svg
   xmlns:dc="http://purl.org/dc/elements/1.1/"
   xmlns:cc="http://creativecommons.org/ns#"
   xmlns:rdf="http://www.w3.org/1999/02/22-rdf-syntax-ns#"
   xmlns:svg="http://www.w3.org/2000/svg"
   xmlns="http://www.w3.org/2000/svg"
   xmlns:sodipodi="http://sodipodi.sourceforge.net/DTD/sodipodi-0.dtd"
   xmlns:inkscape="http://www.inkscape.org/namespaces/inkscape"
   id="svg2"
   version="1.1"
   inkscape:version="0.91 r"
   xml:space="preserve"
   width="502"
   height="170"
   viewBox="0 0 502 170"
   sodipodi:docname="logo-gruene-jugend-nds.svg"><metadata
     id="metadata8"><rdf:RDF><cc:Work
         rdf:about=""><dc:format>image/svg+xml</dc:format><dc:type
           rdf:resource="http://purl.org/dc/dcmitype/StillImage" /><dc:title></dc:title></cc:Work></rdf:RDF></metadata><defs
     id="defs6" /><sodipodi:namedview
     pagecolor="#ffffff"
     bordercolor="#666666"
     borderopacity="1"
     objecttolerance="10"
     gridtolerance="10"
     guidetolerance="10"
     inkscape:pageopacity="0"
     inkscape:pageshadow="2"
     inkscape:window-width="1280"
     inkscape:window-height="743"
     id="namedview4"
     showgrid="false"
     inkscape:zoom="0.7629482"
     inkscape:cx="382.72916"
     inkscape:cy="88.838966"
     inkscape:window-x="0"
     inkscape:window-y="0"
     inkscape:window-maximized="1"
     inkscape:current-layer="g12"
     showguides="false" /><g
     id="g10"
     inkscape:groupmode="layer"
     inkscape:label="GJ-NDS-Logo Vektor"
     transform="matrix(1.25,0,0,-1.25,0,170)"><g
       id="g12"><path
         d="m 355.938,58.223 c 1.691,0 3.39,0.086 5.078,-0.02 2.757,-0.168 5.511,-0.453 8.265,-0.711 0.571,-0.054 1.203,-0.324 1.004,-0.976 -0.109,-0.356 -0.812,-0.789 -1.207,-0.754 -5.289,0.468 -10.527,-0.301 -15.785,-0.524 -2.758,-0.117 -5.535,0.348 -8.309,0.492 -1.527,0.082 -3.058,0.051 -4.589,0.067 -0.317,0.004 -0.637,-0.047 -0.954,-0.035 -3.23,0.156 -6.445,0.281 -9.656,-0.34 -0.976,-0.188 -2.039,0.019 -3.055,0.133 -1.531,0.168 -1.992,0.836 -1.664,2.328 -0.531,0.351 -0.898,0.176 -1.078,-0.387 -0.39,-1.254 -1.367,-1.777 -2.519,-2.117 -6.582,-1.945 -13.192,-1.539 -19.805,-0.191 -0.434,0.085 -0.828,0.339 -1.258,0.445 -0.488,0.113 -1.027,0.293 -1.484,0.187 -3.465,-0.804 -6.973,-0.859 -10.488,-0.625 -2.192,0.145 -4.372,0.555 -6.567,0.676 -2.226,0.121 -4.469,0.086 -6.699,0.024 -3.305,-0.094 -6.516,0.214 -9.773,0.945 -3.145,0.707 -6.454,0.695 -9.696,0.937 -0.797,0.059 -1.687,-0.183 -2.011,0.805 -0.184,0.555 0.71,0.934 1.972,1.027 4.27,0.325 8.481,-0.418 12.719,-0.617 3.668,-0.172 7.351,-0.039 11.023,-0.004 0.457,0.004 0.938,0.188 1.364,0.383 1.683,0.754 3.347,1.543 5.011,2.328 0.11,0.051 0.192,0.153 0.43,0.352 -0.371,0.195 -0.633,0.406 -0.926,0.484 -4.941,1.34 -9.644,3.309 -14.324,5.344 -0.383,0.168 -0.758,0.348 -1.117,0.555 -0.817,0.48 -1.621,0.461 -2.469,0.078 -3.433,-1.551 -7.043,-2.512 -10.789,-2.789 -3.176,-0.231 -6.316,0.078 -9.309,1.328 -3.121,1.304 -5.769,3.219 -7.941,5.832 -1.309,1.574 -2.004,3.394 -2.492,5.328 -0.367,1.469 -0.469,1.527 -1.93,1.117 -2.187,-0.613 -3.972,0.176 -5.441,1.734 -1.528,1.626 -2.383,3.629 -2.821,5.786 -0.714,3.535 -0.945,7.097 -0.144,10.652 0.652,2.91 1.766,5.668 3.957,7.742 3.648,3.461 7.351,2.731 9.793,-1.652 1.605,-2.891 1.976,-6.11 2.047,-9.363 0.031,-1.418 0.148,-1.571 1.594,-1.661 1.117,-0.07 2.23,-0.136 3.351,-0.16 1.121,-0.019 1.922,0.426 2.375,1.547 0.535,1.328 1.445,1.754 2.902,1.57 0.157,-0.023 0.317,-0.019 0.477,-0.011 0.094,0.008 0.184,0.047 0.328,0.086 -0.508,1.586 0.488,2.625 1.531,3.402 2.477,1.848 5,3.656 7.653,5.23 2.57,1.528 5.308,2.77 7.996,4.09 2.965,1.457 4.988,3.832 6.605,6.606 2.379,4.078 5.25,7.777 8.492,11.195 1.997,2.098 4.282,3.824 6.86,5.152 0.226,0.118 0.48,0.321 0.695,0.293 0.402,-0.046 0.856,-0.152 1.145,-0.402 0.117,-0.098 -0.117,-0.652 -0.254,-0.969 -0.071,-0.156 -0.27,-0.277 -0.434,-0.367 -3.805,-2.066 -6.332,-5.41 -8.762,-8.828 -0.992,-1.398 -1.828,-2.906 -2.71,-4.383 -0.149,-0.246 -0.157,-0.574 -0.231,-0.863 0.09,-0.047 0.18,-0.094 0.274,-0.141 0.476,0.692 1.023,1.348 1.417,2.086 2.399,4.496 5.583,8.324 9.762,11.246 2.149,1.5 4.508,2.641 7.094,3.258 0.719,0.172 1.348,0.012 1.445,-0.633 0.059,-0.382 -0.437,-1.011 -0.847,-1.273 -1.723,-1.086 -3.637,-1.902 -5.239,-3.133 -3.285,-2.516 -6.175,-5.453 -8.3,-9.062 -0.102,-0.176 -0.141,-0.387 -0.235,-0.661 1.055,-0.097 1.621,0.497 2.145,1.133 1.496,1.828 2.89,3.75 4.488,5.485 3.391,3.687 7.605,6.058 12.441,7.339 0.434,0.114 0.871,0.348 1.293,0.321 0.41,-0.028 0.801,-0.321 1.2,-0.496 -0.18,-0.364 -0.274,-0.848 -0.563,-1.059 -0.449,-0.332 -1.035,-0.473 -1.559,-0.707 -2.972,-1.309 -5.378,-3.422 -7.687,-5.625 -1.477,-1.402 -2.758,-3.008 -4.105,-4.543 -0.235,-0.269 -0.352,-0.637 -0.649,-1.195 2.285,0.332 4.281,0.707 5.875,2.097 2.164,1.883 4.176,3.938 6.395,5.747 2.644,2.156 5.789,3.335 9.097,4.062 1.145,0.25 2.102,-0.105 2.117,-0.738 0.02,-1.008 -0.859,-1.149 -1.57,-1.383 -3.098,-1.024 -5.875,-2.633 -8.445,-4.613 -0.485,-0.371 -0.848,-0.907 -1.403,-1.52 1.207,-0.355 2.083,-0.109 2.864,0.484 2.07,1.579 4.277,2.895 6.734,3.797 3.086,1.133 6.195,1.133 9.309,0.207 0.414,-0.121 0.687,-0.707 1.027,-1.082 -0.445,-0.238 -0.891,-0.695 -1.332,-0.687 -2.73,0.066 -5.469,0.133 -7.965,-1.164 -1.582,-0.817 -3.054,-1.84 -4.554,-2.805 -0.461,-0.297 -0.469,-0.738 0.082,-0.93 0.964,-0.332 1.945,-0.734 2.941,-0.808 1.019,-0.078 2.117,0.043 3.098,0.344 3.886,1.195 7.773,1.82 11.765,0.554 0.418,-0.136 0.895,-0.222 1.231,-0.48 0.285,-0.215 0.64,-0.832 0.55,-0.946 -0.253,-0.32 -0.699,-0.613 -1.105,-0.668 -0.688,-0.097 -1.41,-0.046 -2.109,0.028 -2.446,0.25 -4.758,-0.27 -6.934,-1.317 -0.867,-0.414 -1.785,-1.015 -2.316,-1.785 -1.684,-2.457 -4.106,-3.429 -6.875,-3.863 -0.418,-0.066 -0.832,-0.156 -1.246,-0.234 0.011,-0.11 0.019,-0.219 0.031,-0.329 0.539,0.032 1.078,0.051 1.617,0.102 3.984,0.367 7.613,2.063 11.43,3.066 2.429,0.641 4.902,1.129 7.379,1.563 0.816,0.141 1.711,-0.07 2.562,-0.172 0.231,-0.027 0.477,-0.203 0.652,-0.375 0.668,-0.66 1.352,-1.32 1.95,-2.047 0.203,-0.246 0.347,-0.824 0.207,-1.004 -0.262,-0.332 -0.739,-0.633 -1.157,-0.687 -1.203,-0.149 -2.418,-0.164 -3.629,-0.246 -0.343,-0.024 -0.683,-0.11 -1.273,-0.203 0.305,-0.407 0.484,-0.696 0.707,-0.946 0.59,-0.652 0.504,-1.195 -0.312,-1.547 -0.313,-0.132 -0.684,-0.125 -1.024,-0.191 -2.246,-0.453 -4.488,-0.91 -6.73,-1.375 -0.121,-0.027 -0.223,-0.176 -0.524,-0.426 1.285,0 2.34,0.028 3.395,-0.004 2.394,-0.066 4.765,-0.242 7.082,-0.98 0.644,-0.203 1.476,-0.199 2.113,0.019 2.883,0.985 5.793,1.774 8.856,1.887 0.16,0.004 0.363,0.063 0.476,-0.008 0.422,-0.277 0.82,-0.593 1.231,-0.898 -0.34,-0.36 -0.614,-0.902 -1.028,-1.055 -2.543,-0.933 -5.148,-1.707 -7.664,-2.695 -1.359,-0.531 -2.594,-1.387 -3.887,-2.098 l 0.094,-0.363 c 0.348,-0.09 0.692,-0.176 1.035,-0.27 0.95,-0.261 1.926,-0.464 2.836,-0.824 0.336,-0.133 0.782,-0.719 0.711,-0.976 -0.094,-0.364 -0.582,-0.793 -0.965,-0.879 -0.832,-0.176 -1.718,-0.071 -2.554,-0.227 -1.325,-0.25 -2.625,-0.625 -3.934,-0.945 0.012,-0.129 0.024,-0.258 0.031,-0.391 0.336,-0.031 0.672,-0.07 1.008,-0.097 2.063,-0.157 4.125,-0.305 6.188,-0.465 0.152,-0.012 0.363,-0.032 0.449,-0.129 0.328,-0.383 0.617,-0.805 0.922,-1.207 -0.391,-0.278 -0.754,-0.715 -1.184,-0.793 -1.094,-0.203 -2.219,-0.235 -3.328,-0.36 -0.32,-0.035 -0.633,-0.164 -0.949,-0.25 0,-0.093 -0.004,-0.187 -0.004,-0.281 0.269,-0.066 0.535,-0.168 0.805,-0.191 4.238,-0.364 8.285,-1.461 12.156,-3.207 0.543,-0.246 1.125,-0.563 0.91,-1.258 -0.215,-0.703 -0.824,-0.731 -1.496,-0.586 -4.352,0.953 -8.742,1.539 -13.211,1.391 -0.543,-0.016 -1.094,-0.032 -1.617,-0.149 -0.242,-0.051 -0.434,-0.344 -0.649,-0.523 0.239,-0.168 0.469,-0.461 0.715,-0.477 1.785,-0.105 3.574,-0.129 5.36,-0.226 3.273,-0.18 6.468,-0.707 9.41,-2.27 0.39,-0.207 0.824,-0.418 1.097,-0.746 0.227,-0.277 0.438,-0.801 0.321,-1.074 -0.121,-0.289 -0.617,-0.489 -0.989,-0.59 -0.308,-0.082 -0.675,0.035 -1.031,0.066 0,-0.133 -0.015,-0.195 0,-0.254 0.129,-0.445 0.477,-0.972 0.348,-1.32 -0.258,-0.683 -0.918,-0.449 -1.488,-0.309 -1.008,0.247 -2.024,0.446 -3.036,0.661 -0.046,-0.114 -0.097,-0.231 -0.148,-0.348 0.277,-0.191 0.551,-0.383 0.824,-0.574 1.36,-0.938 2.723,-1.871 4.071,-2.824 0.203,-0.145 0.421,-0.352 0.488,-0.575 0.125,-0.41 0.34,-1.011 0.152,-1.246 -0.207,-0.261 -0.875,-0.375 -1.242,-0.254 -1.418,0.473 -2.793,1.078 -4.195,1.606 -2.825,1.066 -5.727,1.785 -8.766,1.828 -0.949,0.016 -1.902,-0.016 -2.855,0.004 -0.805,0.019 -1.293,-0.438 -1.711,-1.043 -1.075,-1.543 -2.161,-3.078 -3.235,-4.621 -0.281,-0.406 -0.277,-0.727 0.242,-0.992 2.27,-1.172 4.496,-2.422 6.797,-3.52 0.606,-0.293 1.442,-0.316 2.125,-0.191 6.817,1.254 13.547,1.05 20.153,-1.149 1.195,-0.398 2.429,-0.918 3.402,-1.687 2.238,-1.778 1.848,-4.133 -0.75,-5.356 -0.5,-0.234 -0.996,-0.465 -1.496,-0.699 0.043,-0.121 0.09,-0.238 0.141,-0.359 z M 250.715,89.23 c -0.106,-0.07 -0.211,-0.14 -0.317,-0.21 0.118,-0.579 0.149,-1.196 0.372,-1.735 0.542,-1.328 1.242,-2.594 1.738,-3.937 0.289,-0.782 0.406,-1.668 0.41,-2.508 0.004,-0.77 -0.531,-1.336 -1.313,-1.426 -0.746,-0.086 -1.296,0.348 -1.543,1.047 -0.222,0.629 -0.425,1.281 -0.507,1.937 -0.235,1.938 -1.285,3.446 -2.461,4.891 -0.117,0.145 -0.406,0.293 -0.543,0.242 -0.141,-0.051 -0.266,-0.343 -0.266,-0.531 -0.004,-0.605 0.043,-1.211 0.082,-1.816 0.117,-1.782 0.352,-3.563 0.324,-5.34 -0.015,-1.309 -1.078,-1.906 -2.48,-1.66 -0.996,0.175 -1.387,0.949 -1.195,2.199 0.316,2.023 0.625,4.058 -0.036,6.074 -0.078,0.238 -0.3,0.43 -0.457,0.641 -0.175,-0.2 -0.386,-0.379 -0.507,-0.602 -1.121,-2.09 -1.481,-4.351 -1.328,-6.68 0.175,-2.683 0.906,-5.164 3.117,-6.953 2.66,-2.148 5.832,-2.945 9.113,-3.066 4.801,-0.18 9.383,1.176 13.758,2.941 2.937,1.184 5.629,2.992 8.398,4.574 3.219,1.84 6.426,3.719 10.082,4.543 2.395,0.543 4.836,0.653 7.305,0.504 2.773,-0.171 5.344,-0.816 7.562,-2.558 2.735,-2.145 2.305,-5.692 -0.949,-6.914 -2.242,-0.848 -4.621,-1.192 -7.047,-1.082 -3.089,0.136 -5.933,1.074 -8.711,2.39 -1.691,0.801 -3.504,1.606 -5.406,0.598 -1.406,-0.746 -2.75,-1.605 -4.098,-2.461 -0.921,-0.59 -0.921,-0.977 0.028,-1.504 2.008,-1.109 4.015,-2.226 6.082,-3.234 3.797,-1.848 7.668,-3.52 11.937,-3.922 2.832,-0.27 5.571,-0.188 8.141,1.402 1.957,1.211 4.125,2.031 6.543,1.774 2.082,-0.223 3.91,-1.141 5.727,-2.067 1.316,-0.672 2.664,-0.926 4.074,-0.492 1.062,0.324 2.101,0.75 3.129,1.191 0.273,0.118 0.629,0.45 0.629,0.684 0,0.227 -0.364,0.543 -0.637,0.672 -2.442,1.148 -4.774,2.574 -7.52,2.984 -0.781,0.118 -1.191,0.864 -0.898,1.371 0.527,0.903 3.086,2.098 4.113,1.782 1.02,-0.321 1.992,-0.817 2.969,-1.278 0.433,-0.203 0.781,-0.371 0.922,0.278 0.195,0.925 0.808,1.476 1.617,1.894 0.258,0.137 0.59,0.422 0.617,0.672 0.184,1.555 1.195,2.309 2.524,2.832 0.25,0.098 0.414,0.391 0.765,0.742 -0.48,0.043 -0.668,0.063 -0.855,0.078 -2.098,0.168 -4.199,0.282 -6.285,0.536 -0.477,0.054 -1.133,0.527 -1.266,0.945 -0.125,0.402 0.211,1.074 0.543,1.461 0.301,0.359 0.844,0.566 1.316,0.722 1.258,0.418 1.911,1.477 2.719,2.454 -0.562,0.078 -1.082,0.027 -1.605,-0.012 -0.731,-0.055 -1.461,-0.145 -2.196,-0.137 -0.883,0.012 -1.8,0.34 -2.019,1.192 -0.352,1.382 -1.332,2.011 -2.406,2.679 -1.512,0.942 -1.77,2.711 -0.524,4 0.672,0.696 1.563,1.184 2.367,1.746 0.258,0.18 0.563,0.301 0.844,0.446 -0.023,0.097 -0.051,0.195 -0.074,0.289 -0.774,0 -1.571,-0.114 -2.317,0.035 -0.632,0.133 -1.48,0.418 -1.742,0.902 -0.449,0.84 -0.886,0.871 -1.676,0.653 -1.75,-0.493 -3.558,-0.817 -5.203,0.23 -1.328,0.844 -2.562,0.758 -3.886,0.102 -0.598,-0.297 -1.215,-0.618 -1.852,-0.743 -1.312,-0.253 -2.164,0.75 -1.797,2.036 0.551,1.929 1.969,2.992 3.75,3.675 0.801,0.305 1.617,0.586 2.414,0.907 1.09,0.441 1.797,1.379 1.778,2.453 -0.383,-0.114 -0.739,-0.188 -1.067,-0.328 -0.906,-0.387 -1.773,-0.899 -2.715,-1.164 -0.414,-0.118 -1.074,0.113 -1.429,0.414 -0.829,0.707 -0.258,1.504 0.058,2.261 0.113,0.266 0.137,0.571 0.203,0.856 -0.324,0.051 -0.687,0.219 -0.968,0.133 -0.789,-0.243 -1.579,-0.528 -2.305,-0.911 -1.129,-0.593 -2.168,-1.355 -3.313,-1.914 -1.464,-0.711 -2.558,0.118 -2.406,1.735 0.125,1.328 -0.363,1.703 -1.633,1.25 -0.539,-0.196 -1.07,-0.418 -1.621,-0.582 -0.687,-0.203 -1.32,-0.153 -1.808,0.488 -0.5,0.664 -0.215,1.27 0.117,1.867 0.187,0.34 0.433,0.649 0.656,0.973 -0.051,0.082 -0.101,0.16 -0.152,0.242 -4.016,-0.207 -7.864,-1.223 -11.586,-2.73 -7.274,-2.95 -13.715,-7.204 -19.61,-12.555 0.493,0 0.922,-0.102 1.278,0.019 1.23,0.43 2.527,0.778 3.629,1.446 2.89,1.75 5.695,3.648 8.523,5.5 1.309,0.855 2.57,1.781 3.902,2.593 0.25,0.153 0.868,0.04 1.079,-0.175 0.218,-0.223 0.234,-0.746 0.164,-1.106 -0.063,-0.316 -0.332,-0.613 -0.567,-0.867 -0.758,-0.828 -1.496,-1.672 -2.316,-2.43 -0.668,-0.613 -0.863,-1.281 -0.699,-2.144 0.175,-0.906 0.398,-1.828 0.394,-2.738 -0.019,-3.36 -1.18,-6.305 -3.418,-8.817 -0.347,-0.383 -0.664,-0.793 -0.996,-1.187 0.039,-0.094 0.078,-0.184 0.113,-0.278 0.614,0.063 1.266,0 1.829,0.199 2.46,0.868 4.921,1.739 7.328,2.743 1.468,0.613 2.808,1.515 4.254,2.187 0.328,0.153 0.949,0.008 1.242,-0.234 0.164,-0.141 -0.047,-0.762 -0.149,-1.149 -0.039,-0.168 -0.226,-0.304 -0.367,-0.433 -3.285,-3.039 -7.219,-4.965 -11.476,-6.09 -2.215,-0.59 -4.61,-0.512 -6.922,-0.738 -0.141,-0.012 -0.278,-0.043 -0.414,-0.067 0.265,-0.261 0.546,-0.359 0.836,-0.39 2.457,-0.266 4.851,-0.024 7.128,0.996 0.676,0.304 1.293,0.23 1.688,-0.399 0.414,-0.66 -0.211,-1.039 -0.566,-1.461 -0.098,-0.113 -0.266,-0.168 -0.403,-0.25 -1.883,-1.152 -3.933,-1.851 -6.137,-1.98 -3.527,-0.207 -6.382,1.027 -8.253,4.137 -0.61,1.004 -1.079,2.093 -1.707,3.086 -0.852,1.335 -1.786,2.617 -2.704,3.91 -0.152,0.215 -0.398,0.367 -0.601,0.55 z m 81.492,-28.164 c -0.016,-0.105 -0.035,-0.207 -0.051,-0.308 0.266,-0.102 0.52,-0.266 0.793,-0.297 1.676,-0.188 3.36,-0.492 5.035,-0.481 3.082,0.032 6.172,0.129 9.235,0.434 2.304,0.227 4.578,0.801 6.851,1.274 0.371,0.078 0.68,0.449 1.02,0.683 -0.36,0.211 -0.719,0.418 -1.082,0.629 -0.024,0.012 -0.063,0.008 -0.094,0.016 -4.449,1.207 -8.953,1.632 -13.539,0.961 -1.258,-0.184 -2.535,-0.25 -3.629,-1.043 -1.348,-0.989 -2.808,-1.758 -4.539,-1.868 z m -77.371,29.161 c 0.109,-0.364 0.133,-0.52 0.203,-0.649 0.914,-1.676 2.461,-2.336 4.238,-2.551 4.364,-0.527 7.672,4.719 7.399,8.047 -0.063,0.766 -0.559,0.934 -1.133,0.723 -0.742,-0.27 -1.441,-0.664 -2.133,-1.051 -0.812,-0.453 -1.293,-1.105 -1.488,-2.086 -0.438,-2.18 -2.668,-3.492 -4.891,-2.988 -0.683,0.152 -1.355,0.34 -2.195,0.555 z m 57.82,-32.946 c 0.586,0 1.551,-0.066 2.504,0.02 0.852,0.078 1.695,0.285 2.516,0.523 0.23,0.063 0.472,0.414 0.515,0.664 0.024,0.141 -0.332,0.465 -0.554,0.5 -0.551,0.086 -1.149,0.184 -1.672,0.047 -1.871,-0.492 -3.66,-0.269 -5.434,0.414 -0.379,0.149 -0.801,0.297 -1.199,0.281 -1.781,-0.082 -3.562,-0.203 -5.34,-0.363 -0.316,-0.027 -0.613,-0.324 -0.914,-0.5 0.285,-0.23 0.543,-0.578 0.871,-0.672 2.723,-0.761 5.512,-1.015 8.707,-0.914 z M 236.16,95.957 c -0.012,1.539 -0.441,2.66 -1.23,3.492 -0.469,0.496 -1,0.434 -1.301,-0.144 -0.59,-1.125 -0.293,-3.465 0.562,-4.438 0.633,-0.722 1.528,-0.566 1.844,0.348 0.11,0.32 0.113,0.68 0.125,0.742 z M 321.051,62.18 c 1.148,-0.282 2.222,-0.551 3.304,-0.801 0.461,-0.106 0.934,-0.176 1.403,-0.242 0.797,-0.11 1.293,0.328 1.523,1.011 0.258,0.77 -0.379,1.079 -0.902,1.364 -0.293,0.16 -0.695,0.332 -0.984,0.254 -1.426,-0.371 -2.833,-0.821 -4.239,-1.258 -0.051,-0.012 -0.054,-0.164 -0.105,-0.328 z m 0.363,7.675 c 1.703,-2.015 6.297,-4.214 7.559,-3.617 -0.715,1.278 -6.102,3.856 -7.559,3.617 z m -26.711,5.497 c 0.922,0.136 1.785,0.738 1.84,1.437 0.07,0.961 -0.777,0.832 -1.32,1.047 -0.18,0.07 -0.387,0.187 -0.547,0.144 -0.422,-0.101 -0.981,-0.168 -1.199,-0.457 -0.266,-0.351 -0.481,-1.113 -0.286,-1.359 0.325,-0.41 0.989,-0.555 1.512,-0.812 z m 19.41,22.308 c 0.43,-0.098 0.731,-0.215 1.035,-0.226 1.145,-0.032 2.286,-0.051 3.426,-0.028 0.242,0.004 0.485,0.196 0.723,0.301 -0.164,0.242 -0.274,0.563 -0.5,0.711 -1.149,0.758 -3.344,0.426 -4.684,-0.758 z M 289.074,79.508 c -0.871,-0.25 -1.527,-0.379 -2.117,-0.656 -0.176,-0.082 -0.281,-0.813 -0.195,-0.86 0.59,-0.34 1.215,-0.687 1.875,-0.82 0.582,-0.117 1.375,0.859 1.234,1.523 -0.07,0.321 -0.535,0.563 -0.797,0.813 z m 40.371,22.359 c -0.019,0.106 -0.043,0.211 -0.062,0.317 -1.262,-0.157 -2.524,-0.293 -3.781,-0.489 -0.254,-0.039 -0.473,-0.3 -0.704,-0.465 0.204,-0.21 0.368,-0.515 0.618,-0.621 1.011,-0.429 3.218,0.301 3.929,1.258 z M 307.09,63.496 c -1.512,0.566 -6.129,-0.613 -6.805,-1.672 2.344,0.574 4.574,1.121 6.805,1.672 z M 289.602,59.41 c 1.062,-0.621 1.859,-0.512 2.164,0.227 -0.684,-0.071 -1.289,-0.137 -2.164,-0.227 z"
         style="fill:#000000;fill-opacity:1;fill-rule:nonzero;stroke:none"
         id="path16"
         inkscape:connector-curvature="0" /><path
         style="fill:#000000;fill-opacity:1;fill-rule:nonzero;stroke:none"
         d="m 18.58125,80.584375 c -3.117468,0.02897 -6.224437,-0.136625 -9.285937,-0.865625 -3.817001,-0.91 -6.242688,-3.2655 -6.929688,-7.1875 -0.692,-3.937 -0.607313,-7.898563 -0.09531,-11.851563 0.617,-4.792999 3.55625,-7.168191 7.93125,-7.992183 4.015,-0.758 8.081751,-0.72688 12.143751,-0.49688 2.965,0.168 5.692187,0.902936 7.617187,3.410936 0.016,0.023 0.105562,-0.0078 0.101562,-0.0078 0,-1.469 0.108563,-2.942312 -0.02344,-4.395312 -0.18,-1.957 -1.133375,-3.068936 -3.059375,-3.435944 -3.668,-0.703 -7.373937,-0.695936 -11.060937,-0.08594 -0.989,0.164 -1.718875,0.74588 -1.996875,1.72188 -0.16,0.547 -0.433813,0.679 -0.957813,0.675 -3.230001,-0.019 -6.4643127,-0.0071 -9.695313,-0.01406 -0.215,0 -0.428937,-0.05582 -0.635937,-0.08282 0.032,-5.075 2.804937,-8.758 7.710938,-9.75 2.77,-0.559 5.640562,-0.713808 8.476562,-0.807808 4.637,-0.152 9.277625,-0.07144 13.840625,0.95156 4.304,0.961 7.125124,3.516192 8.078125,7.867192 0.347999,1.605992 0.44825,3.293872 0.456249,4.946872 0.043,8.542999 0.01963,17.086124 0.01563,25.628124 0,0.34 -0.03187,0.679187 -0.04687,0.992187 l -10.421875,0 0,-3.281249 c -1.617,2.282 -3.62425,3.398937 -6.08125,3.710937 -0.985,0.125 -1.972938,0.231312 -2.960938,0.270312 -1.04,0.039 -2.081156,0.07003 -3.120313,0.07969 z m 3.08125,-8.279688 c 1.84,-0.211 3.710625,-0.366374 5.565625,-0.659374 1.61,-0.25 2.582313,-1.290626 2.695313,-2.915626 0.106,-1.589 0.117812,-3.195249 0.0078,-4.781249 -0.105,-1.484 -0.987875,-2.593 -2.471875,-2.8 -2.391,-0.332 -4.814125,-0.531188 -7.228125,-0.617188 -1.391,-0.047 -2.807812,0.148437 -4.182812,0.398437 -1.949,0.351 -2.796063,1.246813 -2.964063,3.207813 -0.129,1.484 -0.114062,2.995687 0.01094,4.479687 0.149,1.754 0.980062,2.702813 2.714062,3.007813 1.91,0.336 3.857125,0.456687 5.853125,0.679687 z"
         id="path18"
         inkscape:connector-curvature="0" /><path
         d="m 283.383,45.137 8.789,0 c 0.016,-0.391 0.047,-0.762 0.047,-1.129 0.004,-7.676 0.011,-15.352 0,-23.028 -0.004,-2.113 -0.094,-4.218 -0.957,-6.207 -1.324,-3.046 -3.731,-4.73 -6.926,-5.281 -5.488,-0.945 -11.016,-1.058 -16.52,-0.246 -5.179,0.766 -7.742,3.852 -7.902,9.164 l 9.356,0 c 0.304,-1.812 1.679,-2.289 3.292,-2.301 2.301,-0.015 4.61,-0.062 6.891,0.133 2.192,0.184 3.156,1.274 3.356,3.473 0.101,1.129 0.015,2.277 0.015,3.437 -0.672,-0.578 -1.25,-1.34 -2.015,-1.664 -1.274,-0.539 -2.645,-0.984 -4.012,-1.133 -3.41,-0.375 -6.844,-0.32 -10.223,0.309 -4.226,0.785 -6.293,2.973 -6.941,7.293 -0.535,3.559 -0.535,7.145 0.082,10.695 0.625,3.61 2.832,5.786 6.406,6.504 4.016,0.809 8.07,0.813 12.125,0.344 1.871,-0.219 3.481,-1.027 4.676,-2.543 0.09,-0.113 0.215,-0.199 0.457,-0.418 0.004,0.953 0.004,1.738 0.004,2.598 z m -8.219,-17.336 c 1.508,0.113 2.719,0.16 3.926,0.297 2.734,0.304 3.531,1.179 3.664,3.922 0.012,0.285 0.066,0.57 0.055,0.855 -0.129,3.406 -0.114,4.691 -4.325,5.086 -0.031,0.004 -0.062,0.016 -0.093,0.012 -2.383,-0.098 -4.778,-0.137 -7.153,-0.321 -1.445,-0.117 -2.351,-1.062 -2.457,-2.504 -0.109,-1.488 -0.078,-2.996 0.035,-4.484 0.102,-1.336 0.981,-2.152 2.27,-2.371 1.437,-0.246 2.906,-0.355 4.078,-0.492 z"
         style="fill:#000000;fill-opacity:1;fill-rule:nonzero;stroke:none"
         id="path20"
         inkscape:connector-curvature="0" /><path
         d="m 206.008,63.188 -26.418,0 c -0.57,-2.141 0.277,-3.891 2.328,-4.172 2.578,-0.352 5.207,-0.364 7.82,-0.469 0.758,-0.031 1.528,0.105 2.289,0.176 1.563,0.148 2.852,0.625 2.918,2.531 l 10.879,0 c -0.219,-5.949 -3.031,-8.391 -7.754,-9.305 -2.929,-0.566 -5.961,-0.711 -8.957,-0.816 -4.054,-0.145 -8.125,-0.145 -12.152,0.551 -4.523,0.781 -7.348,3.195 -8.066,7.074 -0.266,1.441 -0.45,2.914 -0.465,4.379 -0.024,2.679 -0.118,5.39 0.218,8.035 0.684,5.394 3.036,7.859 8.411,8.656 6.765,1 13.574,0.961 20.367,0.086 0.937,-0.117 1.867,-0.434 2.758,-0.762 2.562,-0.949 4.273,-2.711 5.019,-5.382 0.961,-3.442 0.945,-6.938 0.805,-10.582 z m -11.078,6.371 c 0.117,2.113 -0.371,2.918 -2.289,3.324 -3.543,0.754 -7.121,0.707 -10.664,-0.031 -1.68,-0.352 -2.461,-1.504 -2.446,-3.293 l 15.399,0 z"
         style="fill:#000000;fill-opacity:1;fill-rule:nonzero;stroke:none"
         id="path22"
         inkscape:connector-curvature="0" /><path
         d="m 396.332,19.906 -8.562,0 0,2.414 c -0.168,0.024 -0.262,0.059 -0.278,0.039 -1.359,-1.839 -3.316,-2.507 -5.465,-2.785 -3.8,-0.496 -7.597,-0.476 -11.359,0.246 -3.836,0.739 -5.977,2.918 -6.57,6.762 -0.602,3.906 -0.653,7.844 0.011,11.746 0.739,4.332 2.907,6.402 7.27,7.059 3.527,0.535 7.074,0.547 10.613,0.148 2.184,-0.246 2.992,-0.73 5.145,-2.847 l 0,12.558 9.195,0 c 0,-11.789 0,-23.539 0,-35.34 z m -16.477,6.949 c 1.411,0.18 3.215,0.36 5.004,0.649 1.27,0.203 2.125,1.023 2.203,2.312 0.102,1.805 0.09,3.622 -0.007,5.426 -0.075,1.387 -0.996,2.172 -2.321,2.434 -3.078,0.609 -6.16,0.547 -9.234,-0.043 -1.227,-0.235 -1.938,-1.004 -2.219,-2.223 -0.445,-1.969 -0.351,-3.93 -0.011,-5.894 0.23,-1.325 1.148,-1.965 2.367,-2.172 1.258,-0.211 2.535,-0.301 4.218,-0.489 z"
         style="fill:#000000;fill-opacity:1;fill-rule:nonzero;stroke:none"
         id="path24"
         inkscape:connector-curvature="0" /><path
         d="m 137.211,51.766 -10.785,0 0,28.082 10.289,0 0,-3.344 c 0.164,0.016 0.25,-0.004 0.269,0.023 1.821,2.547 4.45,3.543 7.426,3.821 4.219,0.398 8.461,0.547 12.535,-0.825 4.028,-1.351 6.617,-4.246 6.836,-8.511 0.324,-6.317 0.215,-12.657 0.289,-18.989 0,-0.058 -0.043,-0.117 -0.093,-0.238 l -10.711,0 c -0.02,0.36 -0.051,0.727 -0.055,1.094 -0.023,4.734 -0.008,9.469 -0.078,14.207 -0.051,3.379 -0.828,4.277 -4.172,4.828 -2.504,0.414 -5.039,0.398 -7.535,-0.117 -2.746,-0.563 -3.981,-1.981 -4.047,-4.789 -0.117,-4.668 -0.117,-9.34 -0.168,-14.012 -0.004,-0.375 0,-0.758 0,-1.23 z"
         style="fill:#000000;fill-opacity:1;fill-rule:nonzero;stroke:none"
         id="path26"
         inkscape:connector-curvature="0" /><path
         d="m 83.48,79.848 10.723,0 c 0.024,-0.368 0.063,-0.735 0.067,-1.098 0.023,-4.574 0.007,-9.152 0.074,-13.727 0.054,-3.949 1.429,-5.378 5.402,-5.441 2.223,-0.035 4.477,0.074 6.668,0.422 2.199,0.348 3.414,1.758 3.488,3.969 0.168,4.859 0.172,9.722 0.239,14.582 0.004,0.406 0,0.812 0,1.277 l 10.859,0 0,-28.027 -10.289,0 0,3.164 c -0.184,-0.031 -0.313,-0.016 -0.344,-0.063 -1.601,-2.328 -4,-3.238 -6.64,-3.539 -4.149,-0.472 -8.309,-0.562 -12.391,0.508 -4.516,1.184 -7.516,4.633 -7.691,9.277 -0.227,6.106 -0.176,12.215 -0.247,18.325 0,0.093 0.04,0.183 0.082,0.371 z"
         style="fill:#000000;fill-opacity:1;fill-rule:nonzero;stroke:none"
         id="path28"
         inkscape:connector-curvature="0" /><path
         d="m 304.199,30.223 c 0.047,-0.637 0.055,-1.118 0.129,-1.586 0.211,-1.36 0.754,-2.094 2.106,-2.235 2.218,-0.234 4.453,-0.254 6.679,-0.351 0.285,-0.016 0.575,0.054 0.86,0.074 1.55,0.098 3,0.34 3.105,2.344 l 9.086,0 c 0.531,-3.02 -1.508,-6.551 -4.504,-7.817 -2.371,-1.004 -4.894,-1.168 -7.422,-1.277 -3.992,-0.172 -7.992,-0.27 -11.953,0.441 -4.406,0.793 -6.715,3.34 -7.094,7.786 -0.316,3.636 -0.441,7.281 0.141,10.902 0.613,3.82 2.859,6.156 6.688,6.762 5.714,0.902 11.472,0.98 17.187,0.093 4.148,-0.644 6.242,-2.832 6.832,-7.019 0.371,-2.641 0.383,-5.332 0.559,-8.117 -7.59,0 -14.926,0 -22.399,0 z m 12.809,5.824 c 0.133,1.875 -0.363,2.617 -2.098,2.969 -2.785,0.566 -5.582,0.5 -8.363,-0.028 -1.516,-0.285 -2.149,-1.191 -2.207,-2.941 l 12.668,0 z"
         style="fill:#000000;fill-opacity:1;fill-rule:nonzero;stroke:none"
         id="path30"
         inkscape:connector-curvature="0" /><path
         d="m 338.559,19.902 -9.153,0 0,25.203 8.703,0 0,-3.039 c 2.051,2.989 4.918,3.614 7.918,3.637 2.543,0.02 5.137,-0.047 7.621,-0.531 3.997,-0.777 6.59,-3.453 6.895,-7.469 0.445,-5.887 0.348,-11.812 0.48,-17.785 l -9.296,0 c -0.02,0.328 -0.047,0.664 -0.047,1 -0.016,4.32 0.004,8.641 -0.043,12.957 -0.032,2.727 -0.961,3.777 -3.703,4 -1.743,0.141 -3.516,0.148 -5.25,-0.027 -2.821,-0.289 -4.016,-1.633 -4.071,-4.489 -0.074,-3.933 -0.043,-7.871 -0.054,-11.804 -0.004,-0.512 0,-1.02 0,-1.653 z"
         style="fill:#000000;fill-opacity:1;fill-rule:nonzero;stroke:none"
         id="path32"
         inkscape:connector-curvature="0" /><path
         d="m 224.777,45.113 9.332,0 0,-1.086 c 0.012,-4.027 0.02,-8.058 0.036,-12.086 0,-0.418 0.019,-0.832 0.074,-1.246 0.312,-2.394 1.39,-3.488 3.816,-3.566 1.934,-0.059 3.895,-0.024 5.813,0.226 1.937,0.25 2.914,1.364 3.187,3.301 0.18,1.227 0.235,2.481 0.246,3.723 0.031,3.23 0.012,6.461 0.012,9.691 l 0,1.055 9.16,0 0,-25.203 -8.75,0 0,2.613 c -1.887,-2.398 -4.48,-2.945 -7.211,-3.16 -2.785,-0.223 -5.562,-0.187 -8.293,0.453 -3.969,0.93 -6.761,3.817 -7,7.883 -0.336,5.766 -0.301,11.555 -0.422,17.402 z"
         style="fill:#000000;fill-opacity:1;fill-rule:nonzero;stroke:none"
         id="path34"
         inkscape:connector-curvature="0" /><path
         d="m 58.684,51.785 -10.875,0 0,1.184 c 0,8.574 0.015,17.144 -0.024,25.719 -0.004,0.953 0.215,1.253 1.215,1.226 2.715,-0.078 5.438,-0.027 8.156,-0.027 l 1.035,0 0,-3.395 c 0.157,0 0.247,-0.023 0.266,0 1.758,2.531 4.301,3.629 7.254,3.926 2.684,0.27 5.367,0.277 8.012,-0.34 3.148,-0.73 5.172,-2.601 5.941,-5.808 0.582,-2.422 0.598,-4.856 0.43,-7.36 l -10.321,0 c -0.05,0.668 -0.082,1.301 -0.144,1.934 -0.184,1.953 -0.852,2.844 -2.75,3.109 -1.34,0.188 -2.762,0.207 -4.094,-0.019 C 60.254,71.5 58.941,69.812 58.863,66.906 58.738,62.273 58.738,57.633 58.688,53 58.68,52.621 58.684,52.242 58.684,51.785 Z"
         style="fill:#000000;fill-opacity:1;fill-rule:nonzero;stroke:none"
         id="path36"
         inkscape:connector-curvature="0" /><path
         d="m 208.648,9.496 0,6.828 c 0.29,-0.012 0.559,-0.019 0.829,-0.035 1.718,-0.098 2.664,0.711 2.769,2.43 0.086,1.371 0.156,2.746 0.16,4.117 0.016,7.422 0.004,14.844 0.004,22.266 l 0,1.187 8.645,0 c 0.019,-0.285 0.058,-0.562 0.058,-0.84 -0.008,-9.308 -0.011,-18.617 -0.039,-27.922 -0.004,-0.89 -0.07,-1.8 -0.254,-2.668 -0.718,-3.332 -2.484,-4.921 -6.234,-5.324 -1.926,-0.207 -3.887,-0.039 -5.938,-0.039 z"
         style="fill:#000000;fill-opacity:1;fill-rule:nonzero;stroke:none"
         id="path38"
         inkscape:connector-curvature="0" /><path
         d="m 45.492,47.277 0,1.504 1.086,0 c 35.668,-0.019 71.34,-0.027 107.012,-0.066 14.777,-0.02 29.558,-0.102 44.336,-0.156 0.418,-0.004 0.851,0.05 1.242,-0.055 0.25,-0.07 0.434,-0.391 0.648,-0.598 -0.222,-0.172 -0.425,-0.414 -0.683,-0.504 -0.258,-0.086 -0.567,-0.027 -0.856,-0.027 C 147.73,47.344 97.188,47.312 46.641,47.281 46.266,47.277 45.891,47.277 45.492,47.277 Z"
         style="fill:#000000;fill-opacity:1;fill-rule:nonzero;stroke:none"
         id="path40"
         inkscape:connector-curvature="0" /><path
         d="m 53.703,31.586 0,10.891 c 1.824,0 3.609,0.023 5.387,-0.024 0.269,-0.012 0.598,-0.32 0.777,-0.574 1.625,-2.254 3.223,-4.531 4.836,-6.801 0.172,-0.242 0.371,-0.469 0.731,-0.918 l 0,8.246 3.308,0 0,-10.867 c -1.816,0 -3.629,-0.023 -5.437,0.031 -0.258,0.008 -0.555,0.375 -0.746,0.641 -1.582,2.211 -3.145,4.434 -4.719,6.648 -0.192,0.274 -0.414,0.528 -0.828,0.715 l 0,-7.988 c -1.149,0 -2.192,0 -3.309,0 z"
         style="fill:#000000;fill-opacity:1;fill-rule:nonzero;stroke:none"
         id="path42"
         inkscape:connector-curvature="0" /><path
         d="m 104.02,92.645 11.414,0 0,-8.02 -11.414,0 0,8.02 z"
         style="fill:#000000;fill-opacity:1;fill-rule:nonzero;stroke:none"
         id="path44"
         inkscape:connector-curvature="0" /><path
         d="m 89.34,84.629 0,7.992 11.324,0 0,-7.992 -11.324,0 z"
         style="fill:#000000;fill-opacity:1;fill-rule:nonzero;stroke:none"
         id="path46"
         inkscape:connector-curvature="0" /><path
         d="m 93.578,38.598 0,3.816 2.832,0 0,-10.805 -2.59,0 c -0.035,0.227 -0.078,0.485 -0.113,0.68 -2.23,-1.351 -4.531,-1.23 -6.801,-0.394 -0.519,0.191 -1.043,1.019 -1.133,1.617 -0.179,1.183 -0.148,2.422 -0.035,3.621 0.117,1.219 0.817,1.914 2.043,2.07 1.164,0.152 2.36,0.227 3.528,0.145 0.738,-0.055 1.453,-0.469 2.269,-0.75 z m -2.605,-5.141 c 0,-0.019 0.004,-0.043 0.007,-0.062 0.563,0.078 1.137,0.113 1.688,0.242 0.961,0.222 0.91,1.019 0.91,1.758 -0.004,0.742 0.027,1.621 -0.937,1.726 -1.086,0.117 -2.203,0.051 -3.305,-0.035 -0.258,-0.02 -0.598,-0.383 -0.711,-0.664 -0.723,-1.781 0.063,-2.945 1.965,-2.965 0.129,-0.004 0.254,0 0.383,0 z"
         style="fill:#000000;fill-opacity:1;fill-rule:nonzero;stroke:none"
         id="path48"
         inkscape:connector-curvature="0" /><path
         d="m 212.449,49.812 0,7.387 8.594,0 0,-7.387 -8.594,0 z"
         style="fill:#000000;fill-opacity:1;fill-rule:nonzero;stroke:none"
         id="path50"
         inkscape:connector-curvature="0" /><path
         d="m 137.57,35.906 c 0.055,1.508 -0.156,1.762 -1.515,1.766 -0.762,0 -1.59,0.098 -2.278,-0.156 -1.632,-0.606 -1.761,-0.707 -3.261,-0.536 -0.036,1.149 0.41,1.922 1.527,2.211 2.254,0.586 4.559,0.598 6.84,0.176 0.926,-0.176 1.504,-0.933 1.531,-1.875 0.063,-1.945 0.02,-3.89 0.02,-5.898 l -2.625,0 c -0.036,0.222 -0.079,0.476 -0.075,0.457 -1,-0.242 -1.941,-0.578 -2.902,-0.68 -0.941,-0.098 -1.918,-0.023 -2.863,0.102 -1.27,0.168 -1.758,0.738 -1.867,1.929 -0.137,1.485 0.304,2.602 1.46,2.774 1.653,0.246 3.352,0.187 5.032,0.203 0.304,0 0.613,-0.289 0.976,-0.473 z m -2.246,-0.879 c -0.504,-0.039 -1.066,-0.007 -1.57,-0.152 -0.301,-0.09 -0.692,-0.457 -0.711,-0.723 -0.02,-0.246 0.391,-0.738 0.633,-0.75 1.097,-0.054 2.211,-0.015 3.308,0.09 0.211,0.02 0.543,0.496 0.528,0.746 -0.012,0.239 -0.367,0.582 -0.637,0.657 -0.48,0.128 -1.004,0.093 -1.551,0.132 z"
         style="fill:#000000;fill-opacity:1;fill-rule:nonzero;stroke:none"
         id="path52"
         inkscape:connector-curvature="0" /><path
         d="m 163.754,31.535 -1.973,0 -1.019,0 c 0,1.235 0.015,2.43 -0.004,3.629 -0.016,0.746 0.172,1.645 -0.817,1.93 -1.156,0.34 -2.379,0.468 -3.379,-0.336 -0.339,-0.274 -0.433,-0.973 -0.46,-1.485 -0.067,-1.207 -0.024,-2.418 -0.024,-3.683 l -2.824,0 0,10.828 2.777,0 0,-4.301 c 1.746,1.676 3.664,1.426 5.582,1.02 0.899,-0.192 1.676,-0.813 1.782,-1.696 0.234,-1.941 0.25,-3.906 0.359,-5.906 z"
         style="fill:#000000;fill-opacity:1;fill-rule:nonzero;stroke:none"
         id="path54"
         inkscape:connector-curvature="0" /><path
         d="m 186.484,34.777 -7.539,0 c -0.125,-0.902 0.246,-1.406 1.067,-1.422 1.218,-0.023 2.418,-0.402 3.621,0.536 0.551,0.429 1.719,0.074 2.609,0.074 0.113,-1.07 -0.351,-1.922 -1.437,-2.211 -2.317,-0.609 -4.676,-0.617 -7.008,-0.07 -0.953,0.222 -1.567,0.91 -1.637,1.902 -0.074,1.144 -0.117,2.301 -0.019,3.437 0.105,1.243 0.859,2.079 2.07,2.153 1.965,0.117 3.949,0.148 5.91,0.031 1.426,-0.082 2.059,-0.859 2.242,-2.305 0.082,-0.652 0.078,-1.32 0.121,-2.125 z m -2.972,1.61 c -0.106,1.058 -0.387,1.258 -1.731,1.293 -2.242,0.058 -2.633,-0.118 -2.812,-1.293 l 4.543,0 z"
         style="fill:#000000;fill-opacity:1;fill-rule:nonzero;stroke:none"
         id="path56"
         inkscape:connector-curvature="0" /><path
         d="m 107.957,34.777 -7.535,0 c -0.133,-0.902 0.242,-1.402 1.062,-1.422 1.215,-0.027 2.414,-0.402 3.618,0.532 0.554,0.433 1.718,0.074 2.609,0.074 0.117,-1.063 -0.348,-1.918 -1.434,-2.207 -2.316,-0.613 -4.672,-0.613 -7.007,-0.074 -0.954,0.222 -1.567,0.914 -1.637,1.906 -0.078,1.141 -0.117,2.297 -0.02,3.434 0.106,1.25 0.848,2.078 2.067,2.152 1.965,0.125 3.949,0.152 5.91,0.035 1.433,-0.082 2.058,-0.852 2.242,-2.301 0.086,-0.652 0.078,-1.32 0.125,-2.129 z m -2.973,1.61 c -0.105,1.058 -0.39,1.258 -1.734,1.293 -2.246,0.058 -2.633,-0.114 -2.805,-1.293 l 4.539,0 z"
         style="fill:#000000;fill-opacity:1;fill-rule:nonzero;stroke:none"
         id="path58"
         inkscape:connector-curvature="0" /><path
         d="m 77.199,34.812 c -0.144,-1 0.297,-1.453 1.09,-1.464 1.219,-0.016 2.418,-0.399 3.617,0.554 0.547,0.434 1.723,0.075 2.61,0.075 0.043,-1.153 -0.411,-1.95 -1.504,-2.235 -2.321,-0.597 -4.676,-0.601 -7.008,-0.047 -0.91,0.215 -1.52,0.883 -1.59,1.832 -0.086,1.172 -0.129,2.36 -0.023,3.528 0.109,1.246 0.871,2.05 2.097,2.125 1.93,0.121 3.879,0.152 5.813,0.043 1.472,-0.082 2.121,-0.86 2.304,-2.348 0.083,-0.652 0.075,-1.316 0.114,-2.063 l -7.52,0 z m 4.528,1.567 c -0.036,1.051 -0.348,1.273 -1.758,1.301 -2.262,0.043 -2.649,-0.141 -2.719,-1.301 l 4.477,0 z"
         style="fill:#000000;fill-opacity:1;fill-rule:nonzero;stroke:none"
         id="path60"
         inkscape:connector-curvature="0" /><path
         d="m 164.695,34.031 c 0.828,0 1.649,0.004 2.473,-0.008 0.121,0 0.293,-0.015 0.355,-0.089 1.176,-1.473 2.747,-0.754 4.172,-0.719 0.243,0.008 0.469,0.41 0.703,0.629 -0.242,0.191 -0.464,0.484 -0.742,0.551 -0.453,0.117 -0.945,0.109 -1.422,0.125 -1.148,0.039 -2.304,-0.012 -3.445,0.101 -1.465,0.145 -2.082,0.875 -2.082,2.25 0.004,1.356 0.656,2.234 2.031,2.317 2.063,0.117 4.137,0.132 6.2,0.023 1.402,-0.074 1.874,-0.727 1.867,-2.121 -1.098,0.183 -2.149,-0.11 -3.313,0.367 -0.972,0.402 -2.246,0.102 -3.387,0.051 -0.16,-0.004 -0.308,-0.332 -0.464,-0.512 0.246,-0.156 0.484,-0.434 0.738,-0.449 1.433,-0.078 2.871,-0.098 4.305,-0.129 2.093,-0.043 2.98,-1.16 2.539,-3.184 -0.184,-0.836 -0.68,-1.375 -1.504,-1.546 -2.403,-0.5 -4.824,-0.508 -7.231,-0.106 -1.222,0.207 -1.718,0.977 -1.793,2.449 z"
         style="fill:#000000;fill-opacity:1;fill-rule:nonzero;stroke:none"
         id="path62"
         inkscape:connector-curvature="0" /><path
         d="m 118.602,34.031 c 0.867,0 1.664,0.008 2.457,-0.008 0.148,0 0.351,-0.031 0.437,-0.128 1.281,-1.457 2.875,-0.727 4.367,-0.614 0.168,0.016 0.442,0.426 0.418,0.625 -0.023,0.188 -0.347,0.434 -0.578,0.485 -0.461,0.105 -0.945,0.113 -1.422,0.125 -1.148,0.039 -2.304,-0.012 -3.445,0.093 -1.57,0.145 -2.199,0.832 -2.211,2.231 -0.008,1.422 0.668,2.269 2.195,2.359 1.965,0.117 3.946,0.137 5.914,0.047 1.45,-0.066 1.969,-0.719 2.004,-2.141 -1.097,0.145 -2.136,-0.117 -3.293,0.344 -0.988,0.391 -2.25,0.113 -3.39,0.067 -0.168,-0.008 -0.321,-0.379 -0.481,-0.582 0.231,-0.137 0.457,-0.375 0.696,-0.387 1.207,-0.074 2.421,-0.094 3.632,-0.125 0.383,-0.012 0.77,0.016 1.153,-0.02 1.437,-0.136 2.097,-0.808 2.179,-2.183 0.086,-1.492 -0.507,-2.485 -1.937,-2.594 -2.215,-0.164 -4.453,-0.172 -6.668,-0.059 -1.356,0.071 -1.906,0.879 -2.027,2.465 z"
         style="fill:#000000;fill-opacity:1;fill-rule:nonzero;stroke:none"
         id="path64"
         inkscape:connector-curvature="0" /><path
         d="m 151.957,34.641 c 0.008,-2.059 -0.797,-3.059 -2.613,-3.161 -1.715,-0.097 -3.446,-0.101 -5.156,0 -1.782,0.106 -2.504,0.872 -2.661,2.657 -0.078,0.883 -0.062,1.789 0.02,2.675 0.148,1.512 0.844,2.29 2.375,2.395 1.84,0.125 3.699,0.148 5.531,0.016 1.879,-0.141 2.527,-1.024 2.512,-3.078 -0.836,0 -1.684,-0.008 -2.527,0.011 -0.129,0.004 -0.286,0.102 -0.376,0.203 -0.8,0.914 -3.039,1.321 -4.089,0.676 -0.84,-0.515 -0.606,-1.406 -0.602,-2.18 0.004,-0.617 0.262,-1.187 0.953,-1.242 0.946,-0.074 1.903,-0.039 2.852,-0.023 0.144,0 0.359,0.078 0.422,0.187 0.836,1.485 2.195,0.571 3.359,0.864 z"
         style="fill:#000000;fill-opacity:1;fill-rule:nonzero;stroke:none"
         id="path66"
         inkscape:connector-curvature="0" /><path
         d="m 187.609,39.168 2.637,0 c 0.035,-0.313 0.063,-0.586 0.106,-0.977 1.527,1.563 3.367,1.325 5.183,1.051 1.453,-0.215 2.332,-1.094 2.422,-2.547 0.105,-1.679 0.023,-3.367 0.023,-5.109 l -2.832,0 c 0,1.336 0.012,2.637 -0.003,3.937 -0.012,1.278 -0.372,1.657 -1.625,1.758 -0.352,0.028 -0.704,0.02 -1.055,0.008 -1.477,-0.055 -1.957,-0.496 -2.008,-1.965 -0.047,-1.211 -0.012,-2.422 -0.012,-3.715 l -2.836,0 c 0,2.504 0,5.012 0,7.559 z"
         style="fill:#000000;fill-opacity:1;fill-rule:nonzero;stroke:none"
         id="path68"
         inkscape:connector-curvature="0" /><path
         d="m 109.105,39.184 2.59,0 c 0.047,-0.317 0.09,-0.618 0.141,-0.973 1.519,1.5 3.293,1.562 5.035,0.769 1.277,-0.582 1.121,-1.925 1.102,-3.168 l -2.602,0 c -0.332,1.29 -0.711,1.586 -1.883,1.481 -1.011,-0.09 -1.492,-0.594 -1.547,-1.816 -0.054,-1.27 -0.011,-2.547 -0.011,-3.879 l -2.825,0 c 0,2.48 0,4.98 0,7.586 z"
         style="fill:#000000;fill-opacity:1;fill-rule:nonzero;stroke:none"
         id="path70"
         inkscape:connector-curvature="0" /><path
         d="m 73.043,31.562 -2.734,0 0,7.598 2.734,0 0,-7.598 z"
         style="fill:#000000;fill-opacity:1;fill-rule:nonzero;stroke:none"
         id="path72"
         inkscape:connector-curvature="0" /><path
         d="m 70.297,40.438 0,1.964 2.765,0 0,-1.964 -2.765,0 z"
         style="fill:#000000;fill-opacity:1;fill-rule:nonzero;stroke:none"
         id="path74"
         inkscape:connector-curvature="0" /><path
         d="m 307.898,77.688 c -0.218,-3.274 -2.218,-5.258 -4.96,-6.586 -1.036,-0.504 -2.25,-0.653 -3.387,-0.946 -0.723,-0.187 -1.422,0.102 -1.539,0.75 -0.071,0.399 0.441,1.055 0.859,1.36 1.356,0.988 2.934,1.711 4.149,2.836 1.011,0.941 1.671,2.281 2.402,3.496 0.355,0.597 0.512,1.464 1.394,1.277 0.868,-0.18 1.098,-0.973 1.086,-1.805 -0.004,-0.129 -0.004,-0.254 -0.004,-0.382 z"
         style="fill:#000000;fill-opacity:1;fill-rule:nonzero;stroke:none"
         id="path122"
         inkscape:connector-curvature="0" /></g></g></svg>