<?xml version="1.0" encoding="UTF-8" standalone="no"?>
<!-- Created with Inkscape (http://www.inkscape.org/) -->

<svg
   xmlns:dc="http://purl.org/dc/elements/1.1/"
   xmlns:cc="http://creativecommons.org/ns#"
   xmlns:rdf="http://www.w3.org/1999/02/22-rdf-syntax-ns#"
   xmlns:svg="http://www.w3.org/2000/svg"
   xmlns="http://www.w3.org/2000/svg"
   xmlns:sodipodi="http://sodipodi.sourceforge.net/DTD/sodipodi-0.dtd"
   xmlns:inkscape="http://www.inkscape.org/namespaces/inkscape"
   width="42.811115mm"
   height="43.988678mm"
   viewBox="0 0 151.69294 155.86539"
   id="svg4439"
   version="1.1"
   inkscape:version="0.91 r"
   sodipodi:docname="silent-climate-parade-hannover-schrift.svg">
  <defs
     id="defs4441">
    <clipPath
       clipPathUnits="userSpaceOnUse"
       id="clipPath24">
      <path
         d="m -0.92929,416.27023 298,0 0,-235.674 -298,0 0,235.674 z"
         id="path26"
         inkscape:connector-curvature="0"
         style="clip-rule:evenodd" />
    </clipPath>
    <clipPath
       clipPathUnits="userSpaceOnUse"
       id="clipPath32">
      <path
         d="m -2.83465,-2.83465 306.14174,0 0,428.0315 -306.14174,0 0,-428.0315 z"
         id="path34"
         inkscape:connector-curvature="0" />
    </clipPath>
    <clipPath
       clipPathUnits="userSpaceOnUse"
       id="clipPath36">
      <path
         d="m -0.92929,416.27023 298,0 0,-235.674 -298,0 0,235.674 z"
         id="path38"
         inkscape:connector-curvature="0"
         style="clip-rule:evenodd" />
    </clipPath>
    <clipPath
       clipPathUnits="userSpaceOnUse"
       id="clipPath40">
      <path
         d="m -2.83465,-2.83465 306.14174,0 0,428.0315 -306.14174,0 0,-428.0315 z"
         id="path42"
         inkscape:connector-curvature="0" />
    </clipPath>
    <clipPath
       clipPathUnits="userSpaceOnUse"
       id="clipPath44">
      <path
         d="m 79.65143,198.94136 136.344,0 0,-16.912 -136.344,0 0,16.912 z"
         id="path46"
         inkscape:connector-curvature="0"
         style="clip-rule:evenodd" />
    </clipPath>
    <clipPath
       clipPathUnits="userSpaceOnUse"
       id="clipPath48">
      <path
         d="m -2.83465,-2.83465 306.14174,0 0,428.0315 -306.14174,0 0,-428.0315 z"
         id="path50"
         inkscape:connector-curvature="0" />
    </clipPath>
    <clipPath
       clipPathUnits="userSpaceOnUse"
       id="clipPath52">
      <path
         d="m -0.92929,416.27023 298,0 0,-235.674 -298,0 0,235.674 z"
         id="path54"
         inkscape:connector-curvature="0"
         style="clip-rule:evenodd" />
    </clipPath>
    <clipPath
       clipPathUnits="userSpaceOnUse"
       id="clipPath56">
      <path
         d="m -2.83465,-2.83465 306.14174,0 0,428.0315 -306.14174,0 0,-428.0315 z"
         id="path58"
         inkscape:connector-curvature="0" />
    </clipPath>
    <clipPath
       clipPathUnits="userSpaceOnUse"
       id="clipPath60">
      <path
         d="m -0.92929,416.27023 298,0 0,-235.674 -298,0 0,235.674 z"
         id="path62"
         inkscape:connector-curvature="0"
         style="clip-rule:evenodd" />
    </clipPath>
    <clipPath
       clipPathUnits="userSpaceOnUse"
       id="clipPath64">
      <path
         d="m -2.83465,-2.83465 306.14174,0 0,428.0315 -306.14174,0 0,-428.0315 z"
         id="path66"
         inkscape:connector-curvature="0" />
    </clipPath>
    <clipPath
       clipPathUnits="userSpaceOnUse"
       id="clipPath68">
      <path
         d="m -0.92929,416.27023 298,0 0,-235.674 -298,0 0,235.674 z"
         id="path70"
         inkscape:connector-curvature="0"
         style="clip-rule:evenodd" />
    </clipPath>
    <clipPath
       clipPathUnits="userSpaceOnUse"
       id="clipPath72">
      <path
         d="m -2.83465,-2.83465 306.14174,0 0,428.0315 -306.14174,0 0,-428.0315 z"
         id="path74"
         inkscape:connector-curvature="0" />
    </clipPath>
  </defs>
  <sodipodi:namedview
     id="base"
     pagecolor="#ffffff"
     bordercolor="#666666"
     borderopacity="1.0"
     inkscape:pageopacity="0.0"
     inkscape:pageshadow="2"
     inkscape:zoom="0.98994949"
     inkscape:cx="56.387452"
     inkscape:cy="57.440029"
     inkscape:document-units="px"
     inkscape:current-layer="g190"
     showgrid="false"
     fit-margin-top="0"
     fit-margin-left="0"
     fit-margin-right="0"
     fit-margin-bottom="0"
     inkscape:window-width="1280"
     inkscape:window-height="743"
     inkscape:window-x="0"
     inkscape:window-y="0"
     inkscape:window-maximized="1" />
  <metadata
     id="metadata4444">
    <rdf:RDF>
      <cc:Work
         rdf:about="">
        <dc:format>image/svg+xml</dc:format>
        <dc:type
           rdf:resource="http://purl.org/dc/dcmitype/StillImage" />
        <dc:title />
      </cc:Work>
    </rdf:RDF>
  </metadata>
  <g
     inkscape:label="Ebene 1"
     inkscape:groupmode="layer"
     id="layer1"
     transform="translate(-318.61255,-312.71854)">
    <g
       transform="matrix(1.25,0,0,-1.25,209.19756,701.66178)"
       id="g20">
      <g
         id="g22"
         clip-path="url(#clipPath24)">
        <g
           id="g28">
          <g
             id="g30" />
          <g
             id="g76">
            <g
               clip-path="url(#clipPath32)"
               id="g78">
              <g
                 id="g80">
                <g
                   clip-path="url(#clipPath36)"
                   id="g82">
                  <g
                     id="g84">
                    <g
                       id="g86" />
                    <g
                       id="g88">
                      <g
                         clip-path="url(#clipPath40)"
                         id="g90">
                        <g
                           id="g92">
                          <g
                             clip-path="url(#clipPath44)"
                             id="g94">
                            <g
                               id="g96">
                              <g
                                 id="g98" />
                              <g
                                 id="g100">
                                <g
                                   clip-path="url(#clipPath48)"
                                   id="g102">
                                <g
                                   id="g104">
                                <g
                                   transform="translate(113.25039,198.74153)"
                                   id="g106">
                                <path
                                   d="m 5.8138,-6.49887 -3.82731,0 0,-5.40483 L 0,-11.9037 0,0 l 1.98649,0 0,-4.45776 3.81408,0 0,4.45776 1.99972,0 0,-11.9037 -1.98649,0 0,5.40483 z"
                                   style="fill:#ee8134;fill-opacity:1;fill-rule:nonzero;stroke:none"
                                   id="path108"
                                   inkscape:connector-curvature="0" />
                                </g>
                                </g>
                                <g
                                   id="g110">
                                <g
                                   transform="translate(122.2425,198.74153)"
                                   id="g112">
                                <path
                                   d="m 6.29055,-9.50335 -3.6154,0 L 2.02622,-11.9037 0,-11.9037 3.43001,0 l 2.19837,0 3.33734,-11.9037 -2.03947,0 -0.6357,2.40035 0,0 z m -0.54296,2.04107 -1.25811,4.65372 -1.25813,-4.65372 2.51624,0 z"
                                   style="fill:#ee8134;fill-opacity:1;fill-rule:nonzero;stroke:none"
                                   id="path114"
                                   inkscape:connector-curvature="0" />
                                </g>
                                </g>
                                <g
                                   id="g116">
                                <g
                                   transform="translate(131.58262,198.74153)"
                                   id="g118">
                                <path
                                   d="m 5.86679,-11.9037 -3.8803,8.22971 0,-8.22971 L 0,-11.9037 0,0 l 2.03947,0 3.82732,-8.0991 0,8.0991 1.98649,0 0,-11.9037 -1.98649,0 z"
                                   style="fill:#ee8134;fill-opacity:1;fill-rule:nonzero;stroke:none"
                                   id="path120"
                                   inkscape:connector-curvature="0" />
                                </g>
                                </g>
                                <g
                                   id="g122">
                                <g
                                   transform="translate(140.73729,198.74153)"
                                   id="g124">
                                <path
                                   d="m 5.86679,-11.9037 -3.8803,8.22971 0,-8.22971 L 0,-11.9037 0,0 l 2.03947,0 3.82732,-8.0991 0,8.0991 1.98649,0 0,-11.9037 -1.98649,0 z"
                                   style="fill:#ee8134;fill-opacity:1;fill-rule:nonzero;stroke:none"
                                   id="path126"
                                   inkscape:connector-curvature="0" />
                                </g>
                                </g>
                                <g
                                   id="g128">
                                <g
                                   transform="translate(149.36223,198.93747)"
                                   id="g130">
                                <path
                                   d="m 1.27135,-10.728 c 0,0 -1.27135,1.74711 -1.27135,4.49038 0,0 0,2.74325 1.27798,4.49044 0,0 1.27797,1.74718 3.35717,1.74718 0,0 2.09244,0 3.37702,-1.73902 0,0 1.2846,-1.73902 1.2846,-4.58023 0,0 0,-2.64531 -1.26474,-4.40065 0,0 -1.26473,-1.7553 -3.38365,-1.7553 0,0 -2.10566,0 -3.37703,1.7472 l 0,0 z m 3.37703,8.63791 c 0,0 -1.20514,0 -1.93351,-1.13486 0,0 -0.72838,-1.13485 -0.72838,-3.01267 0,0 0,-1.8778 0.72838,-3.01271 0,0 0.72837,-1.13477 1.93351,-1.13477 0,0 1.1919,0 1.9269,1.12665 0,0 0.735,1.12669 0.735,2.95552 0,0 0,1.9268 -0.72178,3.06982 0,0 -0.72171,1.14302 -1.94012,1.14302 z"
                                   style="fill:#ee8134;fill-opacity:1;fill-rule:nonzero;stroke:none"
                                   id="path132"
                                   inkscape:connector-curvature="0" />
                                </g>
                                </g>
                                <g
                                   id="g134">
                                <g
                                   transform="translate(158.63625,198.74153)"
                                   id="g136">
                                <path
                                   d="m 4.93976,-11.9037 -1.68192,0 L 0,0 1.99973,0 4.14516,-8.96456 6.2508,0 8.25057,0 4.93976,-11.9037 Z"
                                   style="fill:#ee8134;fill-opacity:1;fill-rule:nonzero;stroke:none"
                                   id="path138"
                                   inkscape:connector-curvature="0" />
                                </g>
                                </g>
                                <g
                                   id="g140">
                                <g
                                   transform="translate(167.39355,198.74153)"
                                   id="g142">
                                <path
                                   d="m 1.98649,-6.77647 0,-3.08608 5.23109,0 0,-2.04115 L 0,-11.9037 0,0 l 6.97919,0 0,-2.0411 -4.9927,0 0,-2.69426 4.62191,0 0,-2.04111 -4.62191,0 z"
                                   style="fill:#ee8134;fill-opacity:1;fill-rule:nonzero;stroke:none"
                                   id="path144"
                                   inkscape:connector-curvature="0" />
                                </g>
                                </g>
                                <g
                                   id="g146">
                                <g
                                   transform="translate(175.38272,198.74153)"
                                   id="g148">
                                <path
                                   d="m 5.46949,-9.86255 c 0,0 0,0.48981 0.01323,0.76741 0,0 0.01323,0.27758 0.01323,0.48985 0,0 0,0.75112 -0.29133,1.08586 0,0 -0.29138,0.33476 -0.9403,0.33476 l -2.27783,0 0,-4.71903 L 0,-11.9037 0,0 5.17811,0 c 0,0 0.74162,0 1.27796,-0.31025 0,0 0.53639,-0.31025 0.80788,-0.81643 0,0 0.27147,-0.50621 0.39068,-1.02056 0,0 0.11915,-0.51437 0.11915,-1.06954 0,0 0,-2.1554 -1.6289,-2.93919 0,0 0.35756,-0.17962 0.52974,-0.28576 0,0 0.17214,-0.10613 0.35094,-0.35106 0,0 0.17878,-0.24492 0.23839,-0.44088 0,0 0.0596,-0.19594 0.1192,-0.71847 0,0 0.05955,-0.52252 0.07283,-1.02875 0,0 0.01323,-0.50614 0.02646,-1.50231 0,0 0,-0.6858 0.42377,-0.9797 l 0,-0.4408 -2.13215,0 c 0,0 -0.18542,0.4245 -0.24498,0.8164 0,0 -0.05959,0.3919 -0.05959,1.22475 l 0,0 z m 0.3178,6.30288 c 0,0 0,0.9144 -0.34432,1.21648 0,0 -0.34431,0.30209 -1.05946,0.30209 l -2.39702,0 0,-3.10248 2.39702,0 c 0,0 0.70191,0 1.05284,0.31025 0,0 0.35094,0.31024 0.35094,1.27366 z"
                                   style="fill:#ee8134;fill-opacity:1;fill-rule:nonzero;stroke:none"
                                   id="path150"
                                   inkscape:connector-curvature="0" />
                                </g>
                                </g>
                                <g
                                   id="g152">
                                <g
                                   transform="translate(79.65143,198.94136)"
                                   id="g154" />
                                </g>
                                </g>
                              </g>
                            </g>
                          </g>
                        </g>
                        <g
                           id="g156">
                          <g
                             clip-path="url(#clipPath52)"
                             id="g158">
                            <g
                               id="g160">
                              <g
                                 id="g162" />
                              <g
                                 id="g164">
                                <g
                                   clip-path="url(#clipPath56)"
                                   id="g166">
                                <g
                                   id="g168">
                                <g
                                   clip-path="url(#clipPath60)"
                                   id="g170">
                                <g
                                   id="g172">
                                <g
                                   id="g174" />
                                <g
                                   id="g176">
                                <g
                                   clip-path="url(#clipPath64)"
                                   id="g178">
                                <g
                                   id="g180">
                                <g
                                   clip-path="url(#clipPath68)"
                                   id="g182">
                                <g
                                   id="g184">
                                <g
                                   id="g186" />
                                <g
                                   id="g188">
                                <g
                                   clip-path="url(#clipPath72)"
                                   id="g190">
                                <g
                                   id="g192">
                                <g
                                   transform="translate(36.05492,416.27023)"
                                   id="g194" />
                                </g>
                                <g
                                   id="g222"
                                   style="fill:#ffffff;fill-opacity:1">
                                <g
                                   transform="translate(87.86871,311.15459)"
                                   id="g224"
                                   style="fill:#ffffff;fill-opacity:1">
                                <path
                                   d="m 7.41611,-23.4948 0,-2.4087 c 0,-1.9543 0.63675,-3.6808 3.18469,-3.6808 1.8654,0 2.6845,1.6808 2.6845,3.4082 0,2.8635 -2.3654,3.9539 -4.45903,5.2265 -2.45646,1.4082 -4.55004,2.7269 -6.05118,4.4529 C 1.3192,-14.7693 0.4553,-12.6783 0.4553,-9.67981 0.4553,-3.27164 4.32291,0 10.5098,0 17.4711,0 21.0196,-4.63509 20.6563,-11.0428 l -7.371,0 c -0.0914,1.99955 0,4.72642 -2.6388,4.90767 C 9.0082,-5.99859 8.05286,-6.90724 7.87141,-8.40725 7.64427,-10.452 8.6901,-11.4981 10.2827,-12.588 c 3.0026,-1.9091 5.5959,-3.0904 7.4608,-4.8178 1.8655,-1.726 2.958,-3.9986 2.958,-8.1337 0,-6.5442 -3.6404,-10.1799 -10.2831,-10.1799 C 3.09419,-35.7194 0,-31.6299 0,-27.1309 l 0,3.6361 7.41611,0 z"
                                   style="fill:#ffffff;fill-opacity:1;fill-rule:nonzero;stroke:none"
                                   id="path226"
                                   inkscape:connector-curvature="0" />
                                </g>
                                </g>
                                <g
                                   id="g228"
                                   style="fill:#ffffff;fill-opacity:1">
                                <g
                                   transform="translate(111.29863,310.3366)"
                                   id="g230"
                                   style="fill:#ffffff;fill-opacity:1">
                                <path
                                   d="m 0,-34.0842 8.00708,0 L 8.00708,0 0,0 0,-34.0842 Z"
                                   style="fill:#ffffff;fill-opacity:1;fill-rule:nonzero;stroke:none"
                                   id="path232"
                                   inkscape:connector-curvature="0" />
                                </g>
                                </g>
                                <g
                                   id="g234"
                                   style="fill:#ffffff;fill-opacity:1">
                                <g
                                   transform="translate(122.85437,310.3366)"
                                   id="g236"
                                   style="fill:#ffffff;fill-opacity:1">
                                <path
                                   d="M 0,-34.0837 0,0 l 8.00762,0 0,-27.2669 9.78168,0 0,-6.8168 -17.7893,0 z"
                                   style="fill:#ffffff;fill-opacity:1;fill-rule:nonzero;stroke:none"
                                   id="path238"
                                   inkscape:connector-curvature="0" />
                                </g>
                                </g>
                                <g
                                   id="g240"
                                   style="fill:#ffffff;fill-opacity:1">
                                <g
                                   transform="translate(143.0085,310.3366)"
                                   id="g242"
                                   style="fill:#ffffff;fill-opacity:1">
                                <path
                                   d="M 0,-34.0837 0,0 l 18.3355,0 0,-6.81732 -10.32885,0 0,-6.27118 10.01025,0 0,-6.8164 -10.01025,0 0,-7.362 10.87465,0 0,-6.8168 -18.8813,0 z"
                                   style="fill:#ffffff;fill-opacity:1;fill-rule:evenodd;stroke:none"
                                   id="path244"
                                   inkscape:connector-curvature="0" />
                                </g>
                                </g>
                                <g
                                   id="g246"
                                   style="fill:#ffffff;fill-opacity:1">
                                <g
                                   transform="translate(165.62015,310.3366)"
                                   id="g248"
                                   style="fill:#ffffff;fill-opacity:1">
                                <path
                                   d="M 6.96035,-14.9966 6.86988,-15.0881 7.59806,-34.0837 0,-34.0837 0,0 l 8.23383,0 6.18837,-19.0414 0.1361,0 L 13.785,0 l 7.598,0 0,-34.0837 -8.1891,0 -6.23355,19.0871 z"
                                   style="fill:#ffffff;fill-opacity:1;fill-rule:nonzero;stroke:none"
                                   id="path250"
                                   inkscape:connector-curvature="0" />
                                </g>
                                </g>
                                <g
                                   id="g252"
                                   style="fill:#ffffff;fill-opacity:1">
                                <g
                                   transform="translate(188.13993,310.3366)"
                                   id="g254"
                                   style="fill:#ffffff;fill-opacity:1">
                                <path
                                   d="m 0,0 20.7464,0 0,-6.81685 -6.4614,0 0,-27.26685 -8.0076,0 0,27.26685 -6.2774,0 L 0,0 Z"
                                   style="fill:#ffffff;fill-opacity:1;fill-rule:nonzero;stroke:none"
                                   id="path256"
                                   inkscape:connector-curvature="0" />
                                </g>
                                </g>
                                <g
                                   id="g258">
                                <g
                                   transform="translate(87.53199,269.54914)"
                                   id="g260">
                                <path
                                   d="m 10.6635,-9.94091 0,1.70469 c 0,2.27215 -0.81769,3.44367 -1.99044,3.44367 C 6.7181,-4.75709 6.25552,-5.8222 6.25552,-7.56175 L 6.22048,-20.7348 c 0,-1.4908 0.60416,-2.3785 2.23906,-2.3785 2.13296,0 2.31096,2.2007 2.31096,3.8347 l 0,2.4136 6.2557,0 0,-3.2654 c 0,-4.5812 -2.6303,-7.776 -9.02877,-7.776 C 2.23953,-27.9064 0,-24.8534 0,-19.4209 L 0,-8.48546 C 0,-2.69826 2.66612,0 8.3885,0 13.7203,0 16.919,-2.27163 16.919,-7.70413 l 0,-2.23678 -6.2555,0 z"
                                   style="fill:#276a9e;fill-opacity:1;fill-rule:nonzero;stroke:none"
                                   id="path262"
                                   inkscape:connector-curvature="0" />
                                </g>
                                </g>
                                <g
                                   id="g264">
                                <g
                                   transform="translate(107.22288,268.91115)"
                                   id="g266">
                                <path
                                   d="M 0,-26.6294 0,0 l 6.25599,0 0,-21.3034 7.64231,0 0,-5.326 -13.8983,0 z"
                                   style="fill:#276a9e;fill-opacity:1;fill-rule:evenodd;stroke:none"
                                   id="path268"
                                   inkscape:connector-curvature="0" />
                                </g>
                                </g>
                                <g
                                   id="g270">
                                <g
                                   transform="translate(122.43511,268.91115)"
                                   id="g272">
                                <path
                                   d="m 0,-26.6295 6.25539,0 L 6.25539,0 0,0 0,-26.6295 Z"
                                   style="fill:#276a9e;fill-opacity:1;fill-rule:nonzero;stroke:none"
                                   id="path274"
                                   inkscape:connector-curvature="0" />
                                </g>
                                </g>
                                <g
                                   id="g276">
                                <g
                                   transform="translate(132.24416,268.91115)"
                                   id="g278">
                                <path
                                   d="M 0,-26.6294 0,0 l 8.81557,0 3.23423,-15.729 0.0706,0 3.3423,15.729 8.7446,0 0,-26.6294 -5.9724,0 0.6396,20.87718 -0.07,0 -4.4091,-20.87718 -4.65606,0 -4.30057,20.87718 -0.071,0 0.56862,-20.87718 -5.93639,0 z"
                                   style="fill:#276a9e;fill-opacity:1;fill-rule:evenodd;stroke:none"
                                   id="path280"
                                   inkscape:connector-curvature="0" />
                                </g>
                                </g>
                                <g
                                   id="g282">
                                <g
                                   transform="translate(158.47649,268.91115)"
                                   id="g284">
                                <path
                                   d="m 9.59679,-4.82947 -0.07104,0 -1.81243,-11.92963 3.62488,0 -1.74141,11.92963 z M 0,-26.6294 5.8284,0 l 7.5369,0 5.7933,-26.6294 -6.326,0 -0.8897,5.1832 -4.90571,0 -0.7457,-5.1832 -6.29149,0 z"
                                   style="fill:#276a9e;fill-opacity:1;fill-rule:evenodd;stroke:none"
                                   id="path286"
                                   inkscape:connector-curvature="0" />
                                </g>
                                </g>
                                <g
                                   id="g288">
                                <g
                                   transform="translate(174.9679,268.91115)"
                                   id="g290">
                                <path
                                   d="m 0,0 16.2094,0 0,-5.32608 -5.0483,0 0,-21.30332 -6.25545,0 0,21.30332 L 0,-5.32608 0,0 Z"
                                   style="fill:#276a9e;fill-opacity:1;fill-rule:evenodd;stroke:none"
                                   id="path292"
                                   inkscape:connector-curvature="0" />
                                </g>
                                </g>
                                <g
                                   id="g294">
                                <g
                                   transform="translate(192.52632,268.91115)"
                                   id="g296">
                                <path
                                   d="M 0,-26.6294 0,0 l 14.3254,0 0,-5.32608 -8.06891,0 0,-4.90002 7.82041,0 0,-5.3255 -7.82041,0 0,-5.7518 8.49451,0 0,-5.326 -14.751,0 z"
                                   style="fill:#276a9e;fill-opacity:1;fill-rule:nonzero;stroke:none"
                                   id="path298"
                                   inkscape:connector-curvature="0" />
                                </g>
                                </g>
                                <g
                                   id="g300">
                                <g
                                   transform="translate(88.15911,235.86161)"
                                   id="g302">
                                <path
                                   d="m 7.00605,-12.8437 c 1.31385,0.0389 2.82675,-0.119 3.94105,0.7552 0.7161,0.7949 0.8755,1.9878 0.8755,3.02193 0,1.153 -0.1191,2.90326 -1.3134,3.45964 -0.6764,0.2381 -1.6328,0.2381 -2.74674,0.2381 l -0.75641,0 0,-7.47487 0,0 z M 0,-29.8247 0,0 8.3199,0 c 2.7065,0 6.6076,-0.23955 8.5583,-2.46601 1.6319,-1.82944 1.9511,-4.05588 1.9511,-6.48107 0,-3.22152 -0.757,-6.83972 -3.9412,-8.31142 -2.4287,-1.1915 -5.25477,-0.835 -7.88205,-0.9544 l 0,-11.6118 -7.00605,0 z"
                                   style="fill:#0b345e;fill-opacity:1;fill-rule:evenodd;stroke:none"
                                   id="path304"
                                   inkscape:connector-curvature="0" />
                                </g>
                                </g>
                                <g
                                   id="g306">
                                <g
                                   transform="translate(103.88286,235.86161)"
                                   id="g308">
                                <path
                                   d="m 10.7487,-5.40868 -0.0797,0 -2.03048,-13.36112 4.06068,0 -1.9505,13.36112 0,0 z M 0,-29.8247 6.52886,0 l 8.43904,0 6.4886,-29.8247 -7.0858,0 -0.9948,5.8066 -5.49378,0 -0.83617,-5.8066 -7.04595,0 z"
                                   style="fill:#0b345e;fill-opacity:1;fill-rule:evenodd;stroke:none"
                                   id="path310"
                                   inkscape:connector-curvature="0" />
                                </g>
                                </g>
                                <g
                                   id="g312">
                                <g
                                   transform="translate(126.93206,235.86161)"
                                   id="g314">
                                <path
                                   d="m 7.00656,-12.6852 2.38838,0 c 2.02976,0 2.50756,1.8693 2.50756,3.69828 0,3.53838 -1.4725,3.69825 -4.89594,3.61809 l 0,-7.31637 z m 0,-17.1395 L 0,-29.8247 0,0 10.2306,0 c 5.7326,0 8.5991,-2.3071 8.5991,-8.23183 0,-3.18027 -0.7569,-5.44707 -3.7026,-6.79887 l 0,-0.0797 c 1.9509,-0.4378 3.3441,-1.7896 3.4633,-3.8572 0.1985,-2.3868 0.2393,-7.5161 0.6367,-9.4246 0.16,-0.398 0.3581,-0.7556 0.6767,-1.0351 l 0,-0.3974 -7.6429,0 c -0.1988,0.5578 -0.3584,1.1147 -0.3978,1.7103 -0.1197,2.6253 0.0394,5.0905 -0.1596,6.9194 -0.199,1.8295 -0.7564,3.0219 -2.38791,3.1419 l -2.30903,0 0,-11.7716 z"
                                   style="fill:#0b345e;fill-opacity:1;fill-rule:evenodd;stroke:none"
                                   id="path316"
                                   inkscape:connector-curvature="0" />
                                </g>
                                </g>
                                <g
                                   id="g318">
                                <g
                                   transform="translate(146.9554,235.86161)"
                                   id="g320">
                                <path
                                   d="m 10.7487,-5.40868 -0.0793,0 -2.03134,-13.36112 4.06064,0 -1.95,13.36112 0,0 z M 0,-29.8247 6.5284,0 l 8.44,0 6.4881,-29.8247 -7.0853,0 -0.9953,5.8066 -5.49328,0 -0.83616,-5.8066 -7.04646,0 z"
                                   style="fill:#0b345e;fill-opacity:1;fill-rule:evenodd;stroke:none"
                                   id="path322"
                                   inkscape:connector-curvature="0" />
                                </g>
                                </g>
                                <g
                                   id="g324">
                                <g
                                   transform="translate(169.36774,235.86161)"
                                   id="g326">
                                <path
                                   d="m 7.00656,-24.4559 c 4.69694,-0.3178 4.73684,1.5903 4.61724,5.5671 l 0,9.74301 c -0.0404,3.49952 -1.1947,3.69725 -4.61724,3.77696 l 0,-19.08707 z M 0,-29.8247 0,0 7.60391,0 c 2.54749,0 5.61239,-0.08018 7.88199,-1.39214 2.7067,-1.59039 3.144,-4.49369 3.144,-7.3572 l 0,-13.24106 c -0.04,-2.9816 -0.9544,-5.1691 -2.9852,-6.4412 -1.832,-1.194 -4.0613,-1.3931 -6.20936,-1.3931 l -9.43534,0 z"
                                   style="fill:#0b345e;fill-opacity:1;fill-rule:evenodd;stroke:none"
                                   id="path328"
                                   inkscape:connector-curvature="0" />
                                </g>
                                </g>
                                <g
                                   id="g330">
                                <g
                                   transform="translate(191.10234,235.86161)"
                                   id="g332">
                                <path
                                   d="M 0,-29.8247 0,0 l 16.0435,0 0,-5.96504 -9.03694,0 0,-5.48736 8.75864,0 0,-5.9646 -8.75864,0 0,-6.4422 9.51414,0 0,-5.9655 -16.5207,0 z"
                                   style="fill:#0b345e;fill-opacity:1;fill-rule:nonzero;stroke:none"
                                   id="path334"
                                   inkscape:connector-curvature="0" />
                                </g>
                                </g>
                                </g>
                                </g>
                                </g>
                                </g>
                                </g>
                                </g>
                                </g>
                                </g>
                                </g>
                                </g>
                                </g>
                              </g>
                            </g>
                          </g>
                        </g>
                      </g>
                    </g>
                  </g>
                </g>
              </g>
            </g>
          </g>
        </g>
      </g>
    </g>
  </g>
</svg>
